<svg xmlns="http://www.w3.org/2000/svg" width="186.943" height="100.098" viewBox="0 0 186.943 100.098">
  <g id="Group_3" data-name="Group 3" transform="translate(-111.25 -337.67)">
    <path id="Path_4" data-name="Path 4" d="M587.156,407.492c-.015-.224-.039-.452-.059-.685q-.016-.175-.033-.354c-.013-.119-.033-.238-.049-.359l-.107-.739-.151-.76c-.028-.129-.047-.26-.083-.389l-.1-.392-.1-.4-.052-.2c-.018-.067-.041-.133-.061-.2l-.255-.816c-.041-.139-.093-.275-.143-.413l-.153-.416-.156-.422c-.051-.142-.116-.279-.174-.421l-.363-.855c-.131-.284-.27-.569-.408-.859l-.209-.437c-.073-.145-.151-.288-.227-.434a56.485,56.485,0,0,0-4.582-7.217c-1.813-2.471-3.872-5.01-6.112-7.61s-4.668-5.258-7.228-7.968-5.253-5.473-8.05-8.261l-1.044-1.044-1.044-1.031-2.069-2.038a55.42,55.42,0,0,1-3.79-4.089,32.377,32.377,0,0,1-5.419-8.867,19.245,19.245,0,0,1-1.29-9.136c.014-.182.044-.361.07-.54s.049-.357.08-.534l.1-.526c.018-.087.032-.175.052-.261l.062-.258.123-.512.144-.5.071-.249.081-.245.161-.487A22.329,22.329,0,0,1,546.236,333a26.88,26.88,0,0,1,2.007-2.987,31.342,31.342,0,0,1,2.1-2.453,40.469,40.469,0,0,1,3.824-3.527c1.112-.9,2.016-1.56,2.628-2.008s.935-.687.905-.742-.415.08-1.1.431a26.214,26.214,0,0,0-2.861,1.755,34.2,34.2,0,0,0-4.12,3.376,30.014,30.014,0,0,0-2.282,2.445c-.459.551-.915,1.14-1.358,1.768a34.537,34.537,0,0,1,1.966-2.881,41.783,41.783,0,0,1,3.318-3.833c.974-1,1.773-1.738,2.313-2.242s.824-.772.789-.824-.394.121-1.016.537a25.589,25.589,0,0,0-2.573,2.016,34.756,34.756,0,0,0-3.624,3.711,30.64,30.64,0,0,0-3.834,5.746c-.089.177-.175.36-.261.541a36.737,36.737,0,0,1,2.566-5.113,45.752,45.752,0,0,1,2.785-4.093c.825-1.085,1.507-1.9,1.967-2.453s.7-.853.657-.9-.368.165-.919.643a25.851,25.851,0,0,0-2.25,2.259,36.889,36.889,0,0,0-3.1,4,34.4,34.4,0,0,0-3.193,5.923c-.283.688-.547,1.411-.79,2.16.1-.383.2-.762.309-1.131a42.777,42.777,0,0,1,2.257-5.97c.793-1.711,1.574-3.144,2.24-4.3s1.223-2.031,1.595-2.63.562-.921.514-.961-.335.208-.808.742a27.242,27.242,0,0,0-1.9,2.47,41.228,41.228,0,0,0-2.553,4.226,39.677,39.677,0,0,0-2.574,6.039,33.822,33.822,0,0,0-.967,3.567c.144-.969.316-1.9.508-2.8a54.025,54.025,0,0,1,1.687-6.041c.6-1.753,1.19-3.238,1.7-4.443a31.33,31.33,0,0,0,1.576-3.767c-.1-.065-.985,1.118-2.215,3.466a49.112,49.112,0,0,0-3.995,10.494c-.29,1.156-.549,2.381-.755,3.671-.067.418-.126.846-.18,1.278.1-1.559.264-3.043.459-4.438.32-2.262.729-4.3,1.137-6.071s.819-3.293,1.17-4.53a25.672,25.672,0,0,0,1.046-3.875c-.113-.049-.8,1.223-1.717,3.653-.458,1.215-.973,2.721-1.482,4.5a61.309,61.309,0,0,0-1.422,6.122,52.446,52.446,0,0,0-.734,6.177c-.013-2.1.072-4.078.2-5.911.158-2.25.382-4.282.612-6.064s.467-3.313.669-4.564a21.758,21.758,0,0,0,.542-3.916c-.119-.033-.612,1.3-1.234,3.774-.31,1.238-.65,2.764-.979,4.549s-.645,3.83-.888,6.108a68.444,68.444,0,0,0-.4,7.407c0-.028,0-.057-.006-.085-.167-2.608-.219-5.049-.221-7.279,0-4.461.191-8.077.317-10.576a19.232,19.232,0,0,0,.079-3.9c-.123-.017-.436,1.344-.783,3.836s-.731,6.115-.9,10.62c-.081,2.252-.1,4.724,0,7.381.016.407.037.82.06,1.235-.063-.531-.123-1.058-.179-1.576-.277-2.577-.474-4.988-.629-7.192-.307-4.408-.453-7.987-.574-10.461a17.52,17.52,0,0,0-.331-3.848c-.125,0-.277,1.368-.376,3.851s-.146,6.079,0,10.524c.074,2.222.2,4.657.412,7.268.069.84.15,1.7.241,2.577q-.263-1.569-.5-3.067c-.4-2.544-.737-4.921-1.039-7.092-.6-4.344-1.048-7.867-1.386-10.3a16.4,16.4,0,0,0-.688-3.766c-.125.01-.137,1.375-.016,3.832s.375,6.008.814,10.387c.221,2.189.488,4.585.823,7.153q.247,1.886.546,3.892c-.91-4.243-1.7-8.12-2.391-11.486-.876-4.271-1.587-7.729-2.116-10.112a15.673,15.673,0,0,0-.994-3.672c-.123.021-.016,1.372.3,3.794s.834,5.917,1.549,10.224c.6,3.58,1.321,7.723,2.213,12.272-4.043-15.637-7.04-26.384-7.39-26.3-.487.121,4.312,21.086,10.72,46.828s12,46.508,12.485,46.387-4.314-21.086-10.722-46.826q-.571-2.293-1.132-4.53c.026.049.062.106.1.161l.058.09a.848.848,0,0,0,.069.1c.058.073.12.144.182.212a.622.622,0,0,0,.042.053l.023.025.03.044.062.091c.01.016.021.029.032.046l.032.056.065.111c.044.071.086.155.128.237.086.159.166.336.249.508s.159.356.237.536.153.365.227.552c.3.743.579,1.509.851,2.286.544,1.554,1.047,3.111,1.528,4.651s.941,3.065,1.385,4.566c.887,3,1.714,5.91,2.492,8.684,1.553,5.547,2.913,10.557,4.057,14.764s2.068,7.613,2.726,9.961c.329,1.174.591,2.084.779,2.7.095.307.169.54.227.695s.089.226.12.231c.016,0,.03-.018.043-.066a.947.947,0,0,0,.02-.2,6.265,6.265,0,0,0-.052-.739c-.074-.643-.225-1.582-.449-2.784-.448-2.4-1.183-5.861-2.169-10.115s-2.219-9.3-3.687-14.89c-.735-2.792-1.53-5.719-2.4-8.743q-.652-2.268-1.368-4.6c-.48-1.556-.984-3.13-1.54-4.717-.278-.794-.568-1.581-.883-2.363-.078-.2-.162-.39-.243-.585s-.171-.39-.261-.585l-.043-.091.011.012.171.21a14.31,14.31,0,0,1,1.253,1.941c.386.7.746,1.429,1.094,2.173s.675,1.5.989,2.252.615,1.511.909,2.264c.582,1.51,1.126,3.013,1.643,4.5,1.033,2.969,1.961,5.863,2.816,8.629,1.707,5.534,3.128,10.56,4.295,14.787s2.071,7.66,2.692,10.033l.712,2.73c.082.312.145.548.189.706.022.079.042.139.056.178s.031.062.046.064.031-.019.047-.062a.762.762,0,0,0,.036-.2,4.89,4.89,0,0,0-.013-.75c-.048-.653-.177-1.6-.382-2.819-.411-2.43-1.129-5.92-2.139-10.2s-2.308-9.359-3.936-14.95c-.816-2.795-1.715-5.718-2.736-8.726-.511-1.5-1.053-3.028-1.639-4.566-.3-.768-.6-1.541-.921-2.314s-.656-1.549-1.018-2.322-.738-1.538-1.154-2.287l-.125-.22a28.353,28.353,0,0,1,2.266,3.386c.418.713.806,1.443,1.187,2.171s.738,1.464,1.082,2.2c.695,1.471,1.332,2.948,1.934,4.411,1.2,2.927,2.255,5.8,3.207,8.559,1.9,5.518,3.4,10.565,4.6,14.819s2.084,7.724,2.664,10.126c.29,1.2.5,2.135.641,2.768l.154.719c.02.082.032.142.046.184s.029.065.045.066.032-.019.049-.061a.79.79,0,0,0,.046-.194,4.544,4.544,0,0,0,.024-.759,26.928,26.928,0,0,0-.31-2.859c-.372-2.463-1.072-5.994-2.116-10.315s-2.431-9.431-4.258-15.027c-.917-2.8-1.946-5.714-3.144-8.7-.6-1.49-1.24-3-1.946-4.507-.349-.756-.722-1.51-1.106-2.266s-.792-1.508-1.229-2.253q-.348-.6-.716-1.183c.051.065.1.128.154.194.51.646.994,1.323,1.47,2.012.945,1.385,1.815,2.8,2.616,4.239s1.547,2.876,2.244,4.314c1.388,2.877,2.59,5.725,3.66,8.469s2,5.388,2.829,7.878,1.544,4.829,2.165,6.974c1.243,4.29,2.109,7.8,2.645,10.239.268,1.218.453,2.168.564,2.812.059.323.093.567.124.734s.051.253.083.256.069-.082.1-.255a4.561,4.561,0,0,0,.055-.765,22.778,22.778,0,0,0-.232-2.9,96.993,96.993,0,0,0-2.1-10.452c-.547-2.183-1.2-4.562-1.969-7.095s-1.662-5.222-2.7-8.017-2.226-5.7-3.619-8.642c-.7-1.471-1.451-2.951-2.271-4.426-.752-1.358-1.573-2.707-2.464-4.036l.221.271.2.247.193.255a70.812,70.812,0,0,1,5.474,8.344c.205.348.392.7.584,1.057l.57,1.053c.369.7.721,1.408,1.078,2.1l1,2.084c.315.695.636,1.378.938,2.059a130.026,130.026,0,0,1,5.488,14.874c1.3,4.329,2.145,7.9,2.635,10.372.25,1.239.392,2.206.483,2.862q.031.246.06.435c.015.125.023.229.036.314.025.17.052.26.084.263s.065-.083.1-.255c.017-.086.039-.195.055-.324s.02-.278.029-.448a20.29,20.29,0,0,0-.15-2.953,76.944,76.944,0,0,0-2.1-10.615,112.757,112.757,0,0,0-5.189-15.192c-.3-.7-.612-1.4-.923-2.106s-.66-1.414-1-2.133c-.355-.71-.706-1.431-1.076-2.152l-.572-1.08c-.192-.361-.38-.727-.587-1.084a71.834,71.834,0,0,0-4.169-6.657,79.033,79.033,0,0,1,5.4,7.42,92.133,92.133,0,0,1,4.714,8.227,100.791,100.791,0,0,1,6.1,14.875,80.221,80.221,0,0,1,2.647,10.523c.051.316.1.614.147.895l.113.787c.057.488.116.9.142,1.237l.047.444c.009.127.019.235.03.322.022.174.049.266.08.268s.066-.084.106-.258q.029-.131.061-.326c.019-.13.029-.281.043-.454.033-.345.031-.77.03-1.274l-.031-.811c-.015-.289-.042-.595-.067-.92a61.149,61.149,0,0,0-2.117-10.8,90.94,90.94,0,0,0-5.83-15.253,87.36,87.36,0,0,0-4.713-8.441q-1.463-2.311-3.15-4.6,2.272,2.712,4.269,5.465a94.864,94.864,0,0,1,5.275,8.093c1.547,2.663,2.882,5.272,4.016,7.766s2.063,4.874,2.818,7.078a60.377,60.377,0,0,1,2.678,10.692c.389,2.581.317,4.028.46,4.041.031,0,.068-.085.108-.262a5.474,5.474,0,0,0,.12-.79c.014-.174.039-.371.045-.586s.014-.453.023-.709,0-.531-.009-.826c0-.148-.008-.3-.017-.456s-.017-.318-.026-.484a49.559,49.559,0,0,0-2.159-11.014,71.509,71.509,0,0,0-2.662-7.29,82.572,82.572,0,0,0-3.94-7.989,90,90,0,0,0-5.285-8.3q-.989-1.384-2.054-2.76a115.055,115.055,0,0,1,8.9,11.685,75.085,75.085,0,0,1,7.691,14.775,50.381,50.381,0,0,1,1.891,6.114,41.593,41.593,0,0,1,.856,4.757c.154,1.319.215,2.353.242,3.055.024.352.026.62.047.8s.043.277.074.28.068-.087.111-.267a6.484,6.484,0,0,0,.133-.8,19.974,19.974,0,0,0,.1-3.122,34.006,34.006,0,0,0-.568-4.914,45.831,45.831,0,0,0-1.674-6.333,70.523,70.523,0,0,0-7.5-15.256A103.111,103.111,0,0,0,559.35,375c2.823,3.192,5.42,6.356,7.71,9.457a89.425,89.425,0,0,1,5.07,7.594,58.486,58.486,0,0,1,3.6,7.064,41.57,41.57,0,0,1,2.061,6.19,33.645,33.645,0,0,1,.8,4.866l.044.493c.014.16.02.315.03.465.017.3.04.583.046.845s.02.5.029.726.009.423.016.6c.019.721.043,1.1.108,1.11.031,0,.069-.089.113-.272.022-.091.046-.206.071-.342s.052-.3.074-.476.047-.383.072-.607.038-.47.058-.736.028-.554.039-.862c0-.154.012-.313.011-.477s0-.333,0-.507a28.938,28.938,0,0,0-.513-5.044,38.839,38.839,0,0,0-1.862-6.455,55.509,55.509,0,0,0-3.487-7.338,84.125,84.125,0,0,0-5.022-7.827c-1.575-2.2-3.3-4.417-5.154-6.648,2.315,2.541,4.493,5.044,6.494,7.494,2.091,2.562,3.985,5.067,5.627,7.495l.309.452c.1.151.2.3.3.454l.58.9c.2.294.37.6.551.892l.533.879.495.876c.162.29.33.573.475.863.3.576.6,1.135.861,1.7.132.28.27.554.393.829l.356.82c.058.135.119.268.173.4l.156.4.307.79.267.778.131.38.113.379.221.741.184.725a26.913,26.913,0,0,1,.748,4.983c.082,1.389.075,2.479.086,3.219s.033,1.134.1,1.139.157-.377.269-1.115a25.709,25.709,0,0,0,.256-3.259,24.221,24.221,0,0,0-.464-5.186l-.156-.762-.195-.78-.1-.4-.119-.4-.244-.819-.286-.83-.147-.423c-.051-.142-.109-.281-.164-.423l-.339-.861c-.118-.289-.25-.576-.377-.869-.248-.59-.541-1.174-.832-1.776-.141-.3-.3-.6-.463-.9l-.484-.914-.522-.915c-.177-.307-.349-.622-.541-.927l-.57-.932c-.1-.156-.191-.315-.291-.471l-.3-.468c-1.62-2.513-3.5-5.092-5.581-7.715q-1.775-2.235-3.735-4.513c1.741,1.85,3.414,3.67,4.992,5.456,2.255,2.547,4.332,5.02,6.167,7.411a59.154,59.154,0,0,1,4.657,6.924c.078.138.158.274.234.412l.215.414c.142.275.286.545.422.814l.377.807c.06.133.128.263.182.4l.164.4a21.961,21.961,0,0,1,1.035,3.036l.179.716.138.7c.022.114.047.227.065.34s.033.225.049.336c.032.222.068.439.094.653s.044.425.065.63c.01.1.022.2.031.3s.013.2.019.3l.037.577c.01.188.012.372.019.55s.013.352.016.521,0,.333,0,.492,0,.313,0,.462,0,.293,0,.431c0,.554-.012,1.025-.01,1.405,0,.762.024,1.166.087,1.171s.158-.387.278-1.142c.057-.378.126-.846.184-1.4l.047-.434.039-.467.039-.5c.011-.172.017-.35.025-.533s.018-.37.022-.564,0-.392,0-.6q0-.153,0-.31c0-.1-.008-.21-.012-.317Q587.17,407.828,587.156,407.492Z" transform="translate(-409.75 19.919)" fill="#fff"/>
    <path id="Path_5" data-name="Path 5" d="M792.157,347.379q-.107.451-.218.9L790.993,352l-.976,3.863-.49,1.981c-.074.3-.148.61-.221.916,1.012-4.995,2.309-9.873,3.082-14.275.52-2.27,1.045-4.432,1.533-6.453l1.363-5.624c.833-3.439,1.5-6.226,1.94-8.155.221-.965.386-1.715.488-2.226.05-.256.087-.45.1-.584s.021-.2-.006-.218-.081.036-.161.156a4.419,4.419,0,0,0-.272.54c-.213.483-.484,1.207-.806,2.146-.644,1.879-1.492,4.62-2.479,8.024-.493,1.7-1.021,3.57-1.571,5.58s-1.127,4.16-1.7,6.443c-.156.625-.256,1.268-.393,1.9s-.284,1.271-.432,1.905l-.912,3.9-.912,3.9-.406,1.736,1.478-7.166c.322-1.559.608-3.117.856-4.689.245-1.552.616-3.085.967-4.616.259-1.13.525-2.257.791-3.385l1.314-5.486,1.917-7.942c.224-.938.4-1.666.507-2.16l.071-.327c.021-.093.033-.176.046-.238.024-.126.025-.2,0-.215s-.081.033-.164.145a2.167,2.167,0,0,0-.131.214c-.05.087-.1.188-.156.305-.223.466-.5,1.168-.829,2.081-.653,1.826-1.5,4.5-2.463,7.818-.483,1.66-1,3.484-1.526,5.447s-1.082,4.064-1.606,6.305c-.179.765-.305,1.541-.438,2.314s-.293,1.546-.46,2.318l-1.029,4.758-.53,2.45,1-5.367c.292-1.57.585-3.141.783-4.726.083-.666.174-1.319.3-1.979.424-2.16.9-4.22,1.338-6.143s.871-3.715,1.265-5.349c.787-3.268,1.442-5.909,1.9-7.73l.526-2.1c.117-.478.182-.727.127-.759s-.232.182-.462.633a19.809,19.809,0,0,0-.851,2.016c-.664,1.774-1.507,4.374-2.453,7.613-.473,1.62-.972,3.4-1.481,5.317s-1.035,3.971-1.513,6.171c-.167.77-.289,1.548-.4,2.328s-.232,1.519-.378,2.278-.3,1.516-.449,2.275c-.235,1.188-.475,2.4-.7,3.636-.009.048-.017.1-.026.145.031-.212.062-.424.095-.636.184-1.2.381-2.378.573-3.543s.384-2.308.542-3.458c.15-1.092.207-2.185.395-3.273.183-1.051.392-2.082.6-3.082s.423-1.971.633-2.909c.422-1.876.832-3.622,1.215-5.214.765-3.184,1.42-5.752,1.886-7.519l.545-2.032c.125-.463.192-.708.135-.74s-.23.172-.469.6a17.954,17.954,0,0,0-.873,1.95c-.676,1.721-1.522,4.251-2.448,7.41-.464,1.579-.948,3.316-1.435,5.191-.243.938-.488,1.909-.727,2.915s-.475,2.044-.687,3.127c-.18.918-.3,1.847-.392,2.777s-.265,1.85-.426,2.768c-.15.854-.31,1.706-.464,2.559q-.125.7-.253,1.39.441-2.833.769-5.682c.156-1.357.231-2.732.439-4.08.158-1.025.346-2.03.537-3.005s.391-1.922.589-2.837c.4-1.829.792-3.53,1.165-5.08.744-3.1,1.4-5.6,1.879-7.31.238-.857.435-1.518.565-1.969.033-.112.061-.212.083-.3s.044-.158.056-.219c.025-.12.025-.19,0-.205s-.082.027-.163.123c-.04.048-.088.11-.141.185s-.106.167-.168.27a16.134,16.134,0,0,0-.9,1.883c-.691,1.668-1.542,4.129-2.45,7.209-.455,1.54-.924,3.236-1.39,5.067-.231.916-.462,1.867-.685,2.852s-.438,2-.626,3.064c-.191,1.081-.258,2.174-.389,3.262s-.312,2.192-.482,3.329q-.134.9-.267,1.812c.077-.764.159-1.524.242-2.275.122-1.114.249-2.208.343-3.306.089-1.038.12-2.076.252-3.11l.109-.746c.036-.247.069-.493.114-.737.086-.489.159-.972.251-1.447s.175-.944.266-1.405l.275-1.361c.376-1.782.751-3.44,1.113-4.948.724-3.017,1.39-5.439,1.881-7.1l.171-.589.162-.512c.1-.317.173-.594.248-.807.14-.434.189-.68.133-.709s-.214.16-.467.556a7.709,7.709,0,0,0-.417.755l-.246.492-.252.569a63.088,63.088,0,0,0-2.461,7.009c-.446,1.5-.9,3.158-1.343,4.948l-.326,1.369c-.108.465-.208.94-.314,1.421s-.2.975-.3,1.473c-.052.248-.093.5-.136.758l-.131.771c-.18,1.06-.2,2.126-.323,3.191s-.249,2.143-.384,3.257q-.063.517-.125,1.042.056-.777.117-1.545c.125-1.594.239-3.188.318-4.785.015-.487.079-.983.122-1.468s.123-.97.184-1.446l.22-1.411.24-1.37.254-1.326c.347-1.737.706-3.351,1.058-4.819.707-2.935,1.382-5.283,1.886-6.892a10.378,10.378,0,0,0,.727-2.543c-.1-.058-.674.721-1.4,2.284a53.51,53.51,0,0,0-2.477,6.811c-.437,1.465-.875,3.082-1.293,4.834l-.306,1.339-.289,1.391-.266,1.443c-.077.492-.159.989-.229,1.5s-.135,1.025-.164,1.567c-.118,1.665-.263,3.333-.406,5q.1-2.882.252-5.762a46.658,46.658,0,0,1,.653-5.462q.093-.544.194-1.086c.316-1.693.658-3.264,1-4.691.692-2.853,1.379-5.129,1.9-6.686.06-.2.126-.379.186-.55l.165-.484c.1-.3.19-.554.258-.761.136-.414.182-.649.125-.679s-.213.146-.462.514a7.408,7.408,0,0,0-.426.7l-.248.458c-.088.164-.182.339-.269.529a46.035,46.035,0,0,0-2.5,6.616c-.43,1.43-.853,3.01-1.242,4.725a52.173,52.173,0,0,0-.936,5.251c-.142,1.111-.19,2.226-.259,3.343-.053.881-.107,1.781-.161,2.692,0-.056,0-.112,0-.168,0-1.027.021-2.039.043-3.033.012-.495.018-1,.041-1.467q.014-.357.028-.71l.048-.7c.133-1.863.374-3.635.654-5.284s.606-3.178.938-4.565c.678-2.771,1.384-4.975,1.915-6.484.136-.376.258-.71.358-1l.071-.212.071-.192q.067-.184.117-.336c.134-.4.177-.634.12-.664s-.213.14-.459.495q-.092.133-.2.3l-.113.176-.113.2c-.155.273-.332.59-.523.951a40.219,40.219,0,0,0-2.525,6.423c-.423,1.4-.83,2.943-1.187,4.623a49.136,49.136,0,0,0-.849,5.432q-.034.363-.068.731t-.046.744c-.035.5-.05.99-.072,1.493-.026.654-.047,1.322-.065,2-.068-1.839-.053-3.627.037-5.324.1-1.825.279-3.555.521-5.163s.541-3.1.863-4.445.68-2.553,1.013-3.606c.083-.263.172-.514.253-.758s.155-.48.238-.7c.164-.444.3-.856.441-1.221s.261-.69.363-.975.2-.521.266-.718c.135-.393.182-.614.13-.642s-.2.14-.439.485c-.118.173-.263.388-.42.651s-.327.571-.519.919-.381.747-.6,1.18c-.109.216-.207.449-.316.687s-.222.488-.33.748c-.437,1.043-.889,2.25-1.317,3.61a44.739,44.739,0,0,0-1.135,4.525,47.742,47.742,0,0,0-.734,5.309,52.7,52.7,0,0,0-.152,5.92,55.234,55.234,0,0,0,.573,6.332q.117.792.232,1.575l.107.774q.048.385.1.768c.119,1.019.215,2.022.263,3s.053,1.944.01,2.881a24.537,24.537,0,0,1-.3,2.725c-.036.22-.086.436-.128.652l-.065.323c-.023.107-.052.212-.078.317l-.156.628-.184.611-.091.3c-.031.1-.069.2-.1.3l-.208.585c-.069.194-.152.385-.226.575s-.15.379-.233.563a35.914,35.914,0,0,1-2.029,4.018c-.7,1.194-1.386,2.244-2.015,3.154s-1.2,1.677-1.665,2.305l-.622.836c-.179.244-.328.452-.449.622-.238.342-.343.541-.3.581s.232-.08.555-.347c.162-.133.355-.305.577-.514.111-.1.231-.217.357-.339l.4-.4c.556-.565,1.217-1.277,1.939-2.146a37.446,37.446,0,0,0,2.31-3.075,32.581,32.581,0,0,0,2.256-3.906c-.066.165-.132.33-.2.492-.646,1.533-1.331,2.937-1.995,4.2a62.758,62.758,0,0,1-3.458,5.8c-.893,1.326-1.429,2.041-1.328,2.136s.812-.47,1.905-1.687a38.011,38.011,0,0,0,4.038-5.6c.7-1.157,1.412-2.447,2.1-3.873-.044.11-.088.22-.133.329-.654,1.59-1.319,3.056-1.95,4.38s-1.233,2.509-1.78,3.537-1.053,1.892-1.471,2.6l-.3.492c-.095.155-.181.3-.269.432l-.235.369c-.071.113-.133.219-.194.307-.237.362-.342.576-.3.62s.244-.085.582-.378c.086-.072.173-.16.269-.257s.2-.205.312-.323.226-.249.347-.391l.383-.456c.52-.658,1.126-1.488,1.773-2.484s1.338-2.158,2.056-3.467c.684-1.249,1.394-2.631,2.093-4.146l-.191.482c-.657,1.649-1.3,3.176-1.9,4.561s-1.166,2.629-1.681,3.709-.982,2-1.381,2.738c-.095.189-.2.356-.287.52s-.173.317-.254.456c-.168.274-.3.514-.414.705-.237.37-.343.591-.3.635s.245-.093.588-.4c.163-.16.35-.371.572-.622.107-.128.215-.27.333-.421s.247-.311.367-.489c.5-.7,1.069-1.587,1.684-2.638s1.265-2.273,1.951-3.639c.67-1.339,1.374-2.817,2.085-4.422l-.245.637c-.656,1.709-1.271,3.3-1.846,4.738-1.148,2.885-2.138,5.191-2.885,6.746-.373.778-.683,1.369-.9,1.765s-.342.6-.293.651.262-.091.59-.433a11.4,11.4,0,0,0,1.226-1.636,56.58,56.58,0,0,0,3.453-6.583c.656-1.421,1.345-2.991,2.063-4.679l.018-.043-.3.811-1.79,4.912c-1.1,3-2.028,5.4-2.723,7.032-.348.815-.638,1.437-.844,1.851s-.33.625-.283.672.269-.1.587-.469a12,12,0,0,0,1.171-1.739,68.285,68.285,0,0,0,3.283-6.875c.63-1.475,1.294-3.1,2-4.842l.063-.152-.1.262-.246.7c-.634,1.831-1.2,3.531-1.731,5.083-1.055,3.1-1.928,5.6-2.575,7.307-.321.854-.59,1.505-.78,1.94-.048.109-.088.207-.128.286s-.065.156-.093.208c-.051.11-.069.18-.046.2s.085-.007.191-.088a1.438,1.438,0,0,0,.174-.168,2.836,2.836,0,0,0,.212-.254,12.968,12.968,0,0,0,1.107-1.84c.856-1.646,1.917-4.1,3.128-7.154.607-1.527,1.248-3.213,1.937-5.008l.111-.284-.014.037-.131.372-.24.719c-.617,1.89-1.165,3.646-1.674,5.251-1.014,3.207-1.839,5.8-2.439,7.573-.3.888-.539,1.573-.713,2.029l-.115.3c-.035.084-.063.158-.084.217-.049.11-.066.182-.044.2s.085-.009.193-.1c.049-.046.1-.108.168-.184s.126-.168.2-.273a15.168,15.168,0,0,0,1.037-1.937c.807-1.719,1.817-4.26,2.986-7.423.585-1.58,1.206-3.322,1.877-5.176l.169-.456-.077.212c-.044.13-.087.259-.126.383l-.232.741c-.6,1.949-1.127,3.761-1.617,5.416-.976,3.31-1.76,5.988-2.315,7.832-.277.922-.5,1.635-.647,2.115l-.1.316c-.029.091-.056.163-.073.227-.039.116-.058.185-.035.208s.089-.012.19-.115a2.315,2.315,0,0,0,.158-.2c.054-.082.12-.179.185-.291a18.824,18.824,0,0,0,.967-2.028c.758-1.789,1.727-4.418,2.856-7.686.566-1.632,1.167-3.429,1.82-5.344l.1-.283-.016.048-.119.392-.222.762c-.575,2.007-1.09,3.874-1.562,5.581-.941,3.412-1.689,6.176-2.2,8.087l-.581,2.2c-.065.251-.113.442-.143.57-.015.065-.025.112-.029.147s0,.055.007.065.032.007.068-.016a.6.6,0,0,0,.115-.118,3.432,3.432,0,0,0,.311-.524c.24-.472.542-1.186.9-2.114.713-1.856,1.643-4.572,2.736-7.942.547-1.684,1.133-3.536,1.764-5.514l.073-.226-.111.4-.212.782c-.553,2.064-1.054,3.987-1.51,5.744-.909,3.514-1.623,6.363-2.1,8.337-.236.987-.411,1.756-.519,2.279-.054.262-.091.462-.111.6a1.338,1.338,0,0,0-.015.155.155.155,0,0,0,0,.04.045.045,0,0,0,.011.024.023.023,0,0,0,.025,0,.125.125,0,0,0,.041-.028.67.67,0,0,0,.1-.132,4.584,4.584,0,0,0,.277-.554c.217-.495.5-1.235.833-2.2.672-1.921,1.566-4.722,2.626-8.2.53-1.736,1.1-3.642,1.712-5.684l.059-.195c-2.835,11.268-4.56,18.808-4.265,18.886.457.121,5.551-17.571,11.377-39.518S802.46,321.337,802,321.215c-.076-.02-.181.27-.2.312-.141.317-.256.646-.37.972-.185.527-.358,1.058-.528,1.589q-.346,1.079-.674,2.163-.41,1.345-.807,2.693-.469,1.588-.928,3.18-.523,1.81-1.036,3.623-.57,2.01-1.132,4.022-.611,2.188-1.215,4.378c-.425,1.539-.851,3.075-1.267,4.616l-1.266,4.7-1.267,4.7-.652,2.419,1.137-4.73,1.137-4.73,1.137-4.73c.366-1.521.711-3.041,1.084-4.562l1.061-4.324.962-3.919.215-.875c.856-3.527,1.529-6.386,1.967-8.369.219-.992.378-1.764.472-2.292.048-.263.078-.466.092-.6a1.2,1.2,0,0,0,.007-.156c0-.037-.009-.06-.022-.067-.276-.083-1.682,4.2-3.7,11.174-1.005,3.491-2.174,7.65-3.4,12.3C792.577,345.585,792.37,346.483,792.157,347.379Zm-1.492,13.212-.007.028c0-.013,0-.026,0-.039C790.664,360.585,790.666,360.588,790.666,360.592Zm-6.513,19.531,0-.009.27.111C784.67,380.324,784.34,380.193,784.153,380.123Zm1.087.439c-.573-.231.023.009.22.083h0C785.408,380.627,785.332,380.6,785.24,380.562Z" transform="translate(-602.121 19.921)" fill="#fff"/>
    <path id="Path_6" data-name="Path 6" d="M1046.561,345.834a56.147,56.147,0,0,0-2.312-9.4,51.662,51.662,0,0,0-3.959-8.848c-.8-1.41-1.671-2.776-2.6-4.1a46.541,46.541,0,0,0-3-3.828,42.006,42.006,0,0,0-15.842-11.159c-.755-.307-1.517-.6-2.286-.865s-1.543-.518-2.327-.749-1.575-.437-2.37-.626-1.6-.349-2.4-.492c-1.606-.29-3.226-.486-4.847-.626s-3.249-.191-4.873-.2-3.25.061-4.873.186-3.242.328-4.85.6a45.132,45.132,0,0,0-4.776,1.091q-2.354.676-4.628,1.582c-.759.3-1.507.626-2.25.965s-1.472.707-2.2,1.088a41.713,41.713,0,0,0-11.49,9.041c-.54.611-1.063,1.239-1.567,1.876s-.99,1.291-1.461,1.953a46.936,46.936,0,0,0-2.611,4.116,50.738,50.738,0,0,0-3.913,8.895,56.493,56.493,0,0,0-2.252,9.43,59.842,59.842,0,0,0-.694,9.657,74.513,74.513,0,0,0,.7,9.641q.167,1.2.372,2.389t.466,2.377c.349,1.577.757,3.141,1.246,4.681a46.039,46.039,0,0,0,9.354,16.87c.547.6,1.11,1.191,1.7,1.757s1.19,1.111,1.811,1.638a39.051,39.051,0,0,0,3.923,2.906c.682.447,1.382.865,2.092,1.265s1.433.777,2.165,1.134a45.72,45.72,0,0,0,4.5,1.89c1.533.547,3.083,1.031,4.667,1.427s3.181.709,4.789.952a66.061,66.061,0,0,0,9.7.685c1.62,0,3.241-.052,4.86-.158s3.237-.269,4.846-.507,3.212-.534,4.8-.929,3.142-.859,4.681-1.4a41.71,41.71,0,0,0,8.808-4.242,37.7,37.7,0,0,0,7.488-6.288q.829-.9,1.59-1.866c.507-.64,1-1.288,1.464-1.954a44.273,44.273,0,0,0,4.713-8.52q.935-2.246,1.661-4.568.365-1.159.673-2.334c.206-.783.4-1.569.569-2.361s.327-1.585.465-2.382.259-1.594.37-2.394a71.151,71.151,0,0,0,.665-9.654A60.665,60.665,0,0,0,1046.561,345.834ZM1033.78,359.3c0,2.637.009,5.265-.156,7.859-.087,1.3-.218,2.585-.43,3.853a35.038,35.038,0,0,1-.842,3.771,31.6,31.6,0,0,1-2.938,7.108,30.989,30.989,0,0,1-4.589,6.157,29.039,29.039,0,0,1-5.974,4.787,30.713,30.713,0,0,1-7.034,3.054l-.166.047a28.881,28.881,0,0,0,5.752-2.465,27.341,27.341,0,0,0,3.2-2.132,29.117,29.117,0,0,0,2.877-2.549,30,30,0,0,0,6.382-9.53,32.671,32.671,0,0,0,1.264-3.628,33.381,33.381,0,0,0,.838-3.746q.156-.948.257-1.9t.152-1.908c.137-2.547.069-5.064.017-7.567-.027-1.25-.054-2.5-.058-3.739,0-.621,0-1.241.012-1.859l.014-.945c0-.318,0-.635,0-.953a56.391,56.391,0,0,0-.594-7.589,42.707,42.707,0,0,0-1.768-7.438,33.7,33.7,0,0,0-1.475-3.55c-.549-1.15-1.141-2.265-1.737-3.372s-1.24-2.216-1.934-3.291a29.08,29.08,0,0,0-7.975-8.272,36.37,36.37,0,0,0-3.239-2.052c-.559-.313-1.125-.614-1.7-.893-.286-.144-.578-.275-.868-.411s-.584-.263-.881-.383c-1.043-.44-2.109-.821-3.189-1.156.735.2,1.464.425,2.183.676a34.553,34.553,0,0,1,3.567,1.462c.577.279,1.154.573,1.721.88s1.125.629,1.676.963a31.739,31.739,0,0,1,6.05,4.734,34.986,34.986,0,0,1,4.714,6.1,49.4,49.4,0,0,1,3.668,6.852c.249.593.475,1.188.688,1.8s.412,1.226.6,1.846q.55,1.861.933,3.77c.255,1.27.454,2.553.613,3.846s.268,2.587.333,3.884q.048.973.058,1.948c.008.652,0,1.291-.009,1.962C1033.777,356.655,1033.778,357.978,1033.78,359.3Zm-3.033-2.523c.009,1.261.041,2.517.073,3.768.062,2.5.136,4.992.013,7.445q-.048.92-.139,1.834t-.238,1.816a32.792,32.792,0,0,1-.782,3.581,31.132,31.132,0,0,1-1.184,3.465,28.657,28.657,0,0,1-6.016,9.108,27.8,27.8,0,0,1-2.719,2.449,26.006,26.006,0,0,1-3.025,2.05,28.071,28.071,0,0,1-6.765,2.781c-.15.04-.3.077-.452.115a26.833,26.833,0,0,0,5.763-2.3,25.1,25.1,0,0,0,3.089-1.993,27.368,27.368,0,0,0,2.768-2.4,27.971,27.971,0,0,0,2.431-2.738,27.443,27.443,0,0,0,2.053-3.031c.313-.525.6-1.065.874-1.609s.53-1.1.763-1.665.452-1.134.656-1.709.381-1.156.545-1.741a31.562,31.562,0,0,0,.784-3.561,32.05,32.05,0,0,0,.364-3.626c.054-1.209.048-2.416.012-3.611s-.094-2.384-.155-3.568c-.121-2.366-.246-4.714-.189-7.045a58.437,58.437,0,0,0-.265-7.191,43.745,43.745,0,0,0-1.259-7.115,28.03,28.03,0,0,0-1.174-3.452c-.456-1.118-.957-2.2-1.45-3.28a38.9,38.9,0,0,0-3.488-6.341c-.35-.5-.727-.987-1.115-1.457s-.79-.927-1.209-1.368-.849-.871-1.291-1.287-.9-.816-1.365-1.2a34.824,34.824,0,0,0-2.91-2.173,31.554,31.554,0,0,0-3.135-1.847,31.932,31.932,0,0,0-6.008-2.342c.513.129,1.024.266,1.531.419a33.1,33.1,0,0,1,3.447,1.248c.282.116.559.246.838.37s.554.258.826.4c.548.269,1.086.558,1.617.86a36.656,36.656,0,0,1,3.094,1.974q.748.531,1.462,1.1c.476.382.942.775,1.392,1.186a26.788,26.788,0,0,1,2.534,2.616,29.347,29.347,0,0,1,2.159,2.944c.662,1.029,1.279,2.094,1.864,3.184a46.279,46.279,0,0,1,3.108,6.681c.393,1.149.729,2.338,1.012,3.53s.513,2.4.7,3.619a54.816,54.816,0,0,1,.585,7.369c0,.308,0,.616,0,.924l-.013.931C1030.744,355.513,1030.744,356.144,1030.747,356.774Zm-3.006,1.368c.035,1.194.093,2.381.148,3.564s.11,2.36.139,3.533.031,2.336-.025,3.494a29.481,29.481,0,0,1-1.129,6.81q-.24.83-.527,1.646c-.2.54-.4,1.078-.627,1.6s-.472,1.047-.727,1.56-.535,1.016-.83,1.508a25.791,25.791,0,0,1-1.94,2.84,26.221,26.221,0,0,1-2.295,2.564,24.786,24.786,0,0,1-5.48,4.1,25.833,25.833,0,0,1-6.094,2.347,24.434,24.434,0,0,0,4.656-1.8,23.13,23.13,0,0,0,2.945-1.8,25.405,25.405,0,0,0,2.65-2.205c.417-.4.816-.807,1.209-1.228s.766-.859,1.123-1.31a25.08,25.08,0,0,0,1.97-2.83,26.877,26.877,0,0,0,1.577-3.066,27.748,27.748,0,0,0,1.162-3.244,29.047,29.047,0,0,0,1.123-6.779c.051-1.146.037-2.286-.01-3.42s-.129-2.256-.212-3.375c-.168-2.237-.349-4.452-.364-6.654,0-.275,0-.55,0-.824l.018-.825q.027-.85.03-1.7.007-1.7-.075-3.4a47.994,47.994,0,0,0-.754-6.776c-.108-.561-.223-1.118-.366-1.685s-.3-1.115-.481-1.661c-.352-1.091-.756-2.148-1.148-3.193a40.811,40.811,0,0,0-2.763-6.248c-.288-.5-.6-.994-.925-1.474s-.671-.938-1.027-1.391a28.26,28.26,0,0,0-2.3-2.569,32.329,32.329,0,0,0-2.57-2.283q-.675-.535-1.378-1.034c-.471-.328-.948-.649-1.437-.951a28.884,28.884,0,0,0-4.317-2.2,29.7,29.7,0,0,1,3.227,1.423,30.052,30.052,0,0,1,2.983,1.761,33.323,33.323,0,0,1,2.78,2.08q.665.557,1.3,1.148t1.224,1.222c.4.418.776.851,1.142,1.295s.714.894,1.043,1.365a37.422,37.422,0,0,1,3.343,6.1,39.541,39.541,0,0,1,2.532,6.491,42.213,42.213,0,0,1,1.208,6.866,56.833,56.833,0,0,1,.253,7C1027.694,355.749,1027.707,356.948,1027.741,358.142Zm-3.073-2.133c.026,2.277.221,4.528.4,6.754.088,1.113.171,2.223.224,3.327s.068,2.2.025,3.294a27.093,27.093,0,0,1-.328,3.253,27.444,27.444,0,0,1-.711,3.193,24.752,24.752,0,0,1-6.608,11.1,24.046,24.046,0,0,1-2.493,2.107,21.821,21.821,0,0,1-2.763,1.722,23.522,23.522,0,0,1-6.147,2.165,21.23,21.23,0,0,1-3.069.423c.512-.049,1.021-.112,1.528-.195a22.471,22.471,0,0,0,6.23-1.968,21.349,21.349,0,0,0,2.827-1.669,23.212,23.212,0,0,0,2.539-2.065,23.649,23.649,0,0,0,4.1-5.075,24.762,24.762,0,0,0,2.6-5.979,27.216,27.216,0,0,0,1.042-6.421,44.492,44.492,0,0,0-.328-6.434c-.223-2.11-.479-4.2-.584-6.271-.055-1.04-.066-2.066-.026-3.105q.055-1.6.053-3.2c0-1.067-.02-2.128-.064-3.2s-.119-2.139-.234-3.208q-.087-.8-.206-1.6c-.08-.541-.185-1.079-.305-1.608-.239-1.059-.538-2.086-.823-3.1a41.3,41.3,0,0,0-2.036-6.105c-.223-.5-.465-.989-.732-1.469s-.543-.943-.837-1.4a26.641,26.641,0,0,0-1.931-2.616,29.412,29.412,0,0,0-2.214-2.369,27.69,27.69,0,0,0-2.467-2.109,26.266,26.266,0,0,0-4.034-2.521,27.416,27.416,0,0,1,2.922,1.593c.463.288.913.6,1.359.909s.878.647,1.3.987a30.8,30.8,0,0,1,2.446,2.18,26.782,26.782,0,0,1,2.173,2.435c.335.428.659.864.965,1.312s.589.9.858,1.371a27.817,27.817,0,0,1,1.439,2.933c.432,1.012.817,2.042,1.209,3.1s.791,2.086,1.128,3.125c.168.52.322,1.041.455,1.564s.244,1.058.348,1.6a46.47,46.47,0,0,1,.737,6.562q.081,1.658.077,3.318,0,.829-.027,1.658l-.018.854C1024.669,355.439,1024.665,355.725,1024.668,356.009Zm-3.027.524c.011.268.018.538.032.806.105,2.147.362,4.26.578,6.352.107,1.047.208,2.088.268,3.124s.082,2.071.04,3.093a25.7,25.7,0,0,1-1,6.061,23.946,23.946,0,0,1-2.439,5.618,22.128,22.128,0,0,1-3.833,4.759,20.527,20.527,0,0,1-4.994,3.491,20.982,20.982,0,0,1-5.813,1.847c-.5.082-1,.145-1.5.193a19.529,19.529,0,0,0,11.008-5.083,21.517,21.517,0,0,0,3.883-4.766,23.615,23.615,0,0,0,2.444-5.63,25.528,25.528,0,0,0,.977-6.052,35.849,35.849,0,0,0-.377-6.077c-.257-1.99-.569-3.951-.749-5.905-.09-.977-.147-1.951-.15-2.921,0-.242,0-.485.006-.726l.023-.732.057-1.5.113-2.995q.051-1.5.037-3.018-.009-.757-.041-1.517c-.022-.5-.054-1.025-.109-1.534-.108-1.021-.278-2.018-.44-3l-.243-1.479q-.128-.746-.284-1.492a26.861,26.861,0,0,0-.784-2.965c-.161-.489-.344-.973-.546-1.449s-.417-.939-.65-1.4-.478-.907-.737-1.349-.534-.873-.818-1.3a27.234,27.234,0,0,0-1.85-2.44,25.813,25.813,0,0,0-2.115-2.216,24.231,24.231,0,0,0-3.576-2.761,25.241,25.241,0,0,1,2.457,1.662,26.381,26.381,0,0,1,2.338,2.02,28.078,28.078,0,0,1,2.1,2.271,25.287,25.287,0,0,1,1.819,2.49c.275.433.538.876.784,1.323s.469.9.677,1.37a26.945,26.945,0,0,1,1.078,2.894c.156.5.3.995.445,1.5l.42,1.526c.284,1.022.572,2.026.794,3.03.112.5.208,1,.281,1.506s.138,1.027.192,1.543a59.569,59.569,0,0,1,.267,6.254q0,1.572-.063,3.142l-.024.807c-.006.27,0,.54-.005.811Zm-2.89,1.965c.192,2.016.515,3.992.774,5.954a34.532,34.532,0,0,1,.386,5.843,24.179,24.179,0,0,1-.905,5.727,22.57,22.57,0,0,1-2.282,5.317,20.2,20.2,0,0,1-3.611,4.5,18.278,18.278,0,0,1-10.3,4.839c-.478.062-.962.1-1.441.127-.15.009-.3.013-.45.016.129-.007.258-.012.388-.023a17.512,17.512,0,0,0,10.547-4.625,19.817,19.817,0,0,0,3.64-4.547,22.456,22.456,0,0,0,2.257-5.349,24.027,24.027,0,0,0,.868-5.731,30.661,30.661,0,0,0-.454-5.743c-.294-1.876-.658-3.718-.913-5.554-.127-.918-.227-1.834-.278-2.748l-.018-.343-.01-.342-.009-.342v-.683l.012-.34.012-.34.02-.347c.055-.927.134-1.855.225-2.785l.288-2.8c.047-.47.091-.942.129-1.416l.053-.712c.017-.238.03-.483.04-.723.039-.964.026-1.919,0-2.863-.011-.468-.022-.948-.046-1.427s-.057-.958-.1-1.437a23.806,23.806,0,0,0-.447-2.863q-.156-.711-.368-1.41c-.142-.465-.294-.922-.466-1.375a24.013,24.013,0,0,0-1.18-2.642,25.409,25.409,0,0,0-3.229-4.777,23.714,23.714,0,0,0-1.836-1.9c.242.212.481.427.714.649a26.013,26.013,0,0,1,3.736,4.459q.4.607.767,1.236t.687,1.28c.217.432.417.875.6,1.317s.35.893.5,1.351a25.508,25.508,0,0,1,.722,2.818c.1.479.183.962.266,1.447l.238,1.471c.161.986.324,1.955.424,2.917.051.482.079.954.1,1.448s.031.98.037,1.471q.012,1.475-.042,2.961l-.119,2.98-.059,1.49-.026.762c-.011.257-.005.512-.008.768C1018.592,356.473,1018.656,357.49,1018.752,358.5Zm-3.2-2.644.01.363.02.361c.053.964.158,1.918.289,2.863.263,1.889.628,3.739.916,5.578a29.309,29.309,0,0,1,.438,5.487,22.612,22.612,0,0,1-.817,5.4,21.414,21.414,0,0,1-2.111,5.019,18.442,18.442,0,0,1-3.371,4.24,16.118,16.118,0,0,1-9.4,4.267,15.308,15.308,0,0,0,7.9-3.8,18.172,18.172,0,0,0,3.424-4.282,21.817,21.817,0,0,0,2.09-5.037l.093-.328c.03-.109.052-.221.078-.332l.152-.665c.056-.221.088-.446.128-.67l.116-.672c.033-.225.055-.451.084-.676s.059-.451.075-.677l.044-.68c.015-.227.032-.453.03-.681a25.894,25.894,0,0,0-.479-5.4c-.317-1.767-.731-3.5-1.069-5.231-.168-.866-.314-1.733-.427-2.6-.026-.217-.046-.435-.07-.652l-.033-.326-.021-.326c-.012-.217-.032-.435-.038-.652l-.012-.652a21.681,21.681,0,0,1,.7-5.179c.4-1.719.891-3.44,1.193-5.219a19.989,19.989,0,0,0,.189-5.4,22.664,22.664,0,0,0-1.174-5.269,23.767,23.767,0,0,0-2.361-4.849,22.336,22.336,0,0,0-3.414-4.181c-.276-.263-.562-.517-.854-.765a22,22,0,0,1,3.135,3.058,24.271,24.271,0,0,1,3.025,4.585,22.731,22.731,0,0,1,1.091,2.518,19.181,19.181,0,0,1,.754,2.623,22.527,22.527,0,0,1,.392,2.712c.039.457.07.916.088,1.377s.027.921.035,1.393c.015.936.021,1.862-.023,2.777-.011.23-.024.455-.042.685l-.057.694c-.041.463-.087.927-.134,1.392l-.3,2.806c-.095.941-.179,1.886-.238,2.837l-.022.356-.014.365-.014.365,0,.364v.364Zm-2.786-.769.006.681c0,.227.022.452.033.679l.019.339.031.337c.022.225.041.45.066.674.107.9.248,1.784.41,2.664.325,1.76.722,3.492,1.016,5.228a24.947,24.947,0,0,1,.414,5.208c0,.217-.019.434-.035.65l-.048.65c-.017.216-.052.431-.078.647s-.052.431-.086.646l-.117.641c-.04.213-.072.428-.128.638l-.151.633c-.026.105-.048.212-.078.316l-.092.312a20.556,20.556,0,0,1-2.033,4.766,17.051,17.051,0,0,1-3.254,3.978,14.109,14.109,0,0,1-9.339,3.577,12.873,12.873,0,0,1-2.523-.246,12.482,12.482,0,0,1-2.412-.745c-.192-.086-.383-.173-.573-.264l-.28-.145-.14-.072-.136-.078c-.182-.1-.366-.207-.54-.324l-.265-.17-.252-.185-.252-.185-.126-.092-.119-.1-.477-.408c-.3-.295-.607-.58-.879-.9-.14-.157-.283-.312-.41-.482s-.264-.331-.391-.5l-.367-.522-.092-.13-.085-.136-.171-.271-.171-.271c-.057-.09-.107-.186-.161-.278-.105-.187-.214-.372-.317-.56-.2-.383-.4-.761-.578-1.156s-.354-.789-.526-1.186l-.24-.606c-.081-.2-.156-.405-.23-.61-.3-.815-.569-1.648-.823-2.486-.5-1.677-.931-3.4-1.4-5.122a52.081,52.081,0,0,0-1.637-5.163c-.656-1.714-1.482-3.3-2.09-4.9a14.806,14.806,0,0,1-.722-2.408,12.613,12.613,0,0,1-.248-2.47l.02-.627.009-.313c.008-.1.02-.209.03-.313l.061-.627.1-.625.05-.313.066-.311.134-.623.165-.619.082-.31.1-.308.191-.616.214-.613.107-.306.115-.306.23-.612c.321-.815.655-1.628,1-2.446.69-1.633,1.394-3.3,1.944-5.038.54-1.724.979-3.457,1.445-5.16.232-.853.479-1.7.747-2.528l.207-.621c.068-.208.148-.409.222-.614.144-.411.317-.807.48-1.209.085-.2.18-.392.269-.589l.136-.294c.046-.1.1-.191.148-.287l.3-.572.33-.553c.055-.092.109-.185.166-.276l.181-.266c.122-.176.239-.356.364-.53l.395-.506c.067-.084.129-.171.2-.252l.213-.244a13.855,13.855,0,0,1,3.973-3.233,10.49,10.49,0,0,1,4.927-1.2,10.806,10.806,0,0,1,2.549.327,13.2,13.2,0,0,1,2.439.868,16.559,16.559,0,0,1,4.283,2.956,21.067,21.067,0,0,1,3.335,4.041,22.454,22.454,0,0,1,2.287,4.723,20.291,20.291,0,0,1,.879,10.338c-.31,1.725-.81,3.426-1.234,5.163-.212.869-.406,1.748-.546,2.643-.038.223-.066.448-.094.673s-.05.452-.071.678-.029.454-.04.681l-.015.341c0,.057-.006.114-.007.17Zm-11.136-34.206a11.883,11.883,0,0,0-2.616-.367,11.248,11.248,0,0,0-2.749.265,11.584,11.584,0,0,0-2.606.924,13.658,13.658,0,0,0-2.333,1.472,16.893,16.893,0,0,0-2.014,1.868l-.233.252c-.078.084-.148.176-.222.263l-.44.533c-.14.183-.271.372-.407.557l-.2.28c-.064.1-.124.193-.186.29l-.369.582-.336.6c-.055.1-.114.2-.166.3l-.153.307c-.1.205-.206.408-.3.615-.183.417-.377.83-.54,1.254-.083.211-.173.42-.25.633l-.234.637c-.3.851-.58,1.708-.838,2.563-.524,1.711-1,3.415-1.565,5.07-.288.819-.6,1.628-.944,2.436s-.7,1.615-1.059,2.429-.72,1.636-1.066,2.469l-.251.632-.125.316-.117.321-.233.643-.212.655-.106.327-.093.333-.185.667-.155.679-.076.34-.059.345-.116.691-.077.7c-.012.117-.026.233-.037.35l-.016.353-.03.706a14.4,14.4,0,0,0,.272,2.828,16.123,16.123,0,0,0,.8,2.7c.333.862.708,1.687,1.075,2.5s.727,1.6,1.046,2.4c.64,1.607,1.156,3.281,1.651,4.977s.96,3.418,1.512,5.136c.279.858.57,1.714.9,2.558.081.212.163.423.253.632l.263.629c.189.415.368.834.575,1.242s.417.814.633,1.219c.114.2.233.4.349.595.059.1.115.2.178.3l.189.29.189.29.095.145.1.141.262.361q-.568-.643-1.088-1.329a24.67,24.67,0,0,1-1.527-2.285c-.467-.792-.9-1.611-1.3-2.439a27.482,27.482,0,0,1-1.07-2.545c-.318-.871-.613-1.755-.9-2.647-.568-1.783-1.112-3.593-1.733-5.383-.31-.894-.637-1.79-.995-2.669l-1.069-2.61c-.348-.865-.669-1.729-.929-2.605q-.192-.657-.337-1.323c-.093-.444-.166-.891-.222-1.341a16.508,16.508,0,0,1,.3-5.423,33.928,33.928,0,0,1,1.687-5.284c.679-1.741,1.425-3.474,2.064-5.266s1.137-3.617,1.67-5.417c.266-.9.537-1.794.835-2.676s.626-1.75,1-2.6a18.461,18.461,0,0,1,2.852-4.686,16.551,16.551,0,0,1,4.16-3.541,13.535,13.535,0,0,1,1.209-.627,11.946,11.946,0,0,1,2.576-.838,12.54,12.54,0,0,1,1.341-.2A13.155,13.155,0,0,1,1001.63,320.879Zm-3.78-1.588c.313.015.623.042.932.075a13.2,13.2,0,0,0-7.608,1.862,17.467,17.467,0,0,0-4.376,3.757,19.375,19.375,0,0,0-3,4.911c-.384.876-.719,1.769-1.027,2.667s-.593,1.8-.868,2.7l-.818,2.7c-.278.895-.56,1.783-.883,2.652-.643,1.745-1.4,3.46-2.11,5.215a34.4,34.4,0,0,0-1.779,5.44,17.469,17.469,0,0,0-.353,5.788c.058.484.134.966.232,1.442s.219.947.352,1.412c.271.928.6,1.83.952,2.711l1.057,2.615c.347.864.661,1.737.963,2.621.6,1.766,1.134,3.561,1.7,5.364.283.9.579,1.8.9,2.7s.693,1.794,1.1,2.659.858,1.711,1.342,2.541a25.894,25.894,0,0,0,1.594,2.41,22.642,22.642,0,0,0,1.878,2.211,17.293,17.293,0,0,0,2.2,1.923,15.823,15.823,0,0,0,1.678,1.068c-.112-.055-.224-.108-.334-.166a18.775,18.775,0,0,1-2.46-1.538,22.223,22.223,0,0,1-2.221-1.89,24.509,24.509,0,0,1-1.981-2.151q-.463-.567-.891-1.161t-.835-1.213a25.129,25.129,0,0,1-1.47-2.535c-.434-.867-.809-1.781-1.167-2.7-.711-1.841-1.319-3.736-1.967-5.625-.322-.944-.648-1.889-.988-2.83-.169-.47-.344-.942-.521-1.408l-.529-1.4a33.034,33.034,0,0,1-1.753-5.629c-.089-.479-.164-.96-.218-1.443s-.087-.968-.1-1.455a18.2,18.2,0,0,1,.168-2.911,28.715,28.715,0,0,1,1.479-5.691c.663-1.863,1.433-3.7,2.135-5.578.353-.938.678-1.895.983-2.846s.6-1.906.9-2.854a51.141,51.141,0,0,1,2.026-5.562,20.27,20.27,0,0,1,3.058-4.945,18.593,18.593,0,0,1,4.378-3.792c.411-.251.833-.486,1.265-.7s.872-.4,1.323-.567.908-.31,1.372-.429.935-.214,1.409-.286.952-.117,1.431-.143S997.37,319.272,997.85,319.291Zm-1.592-1.131c.1,0,.2,0,.306,0a15.775,15.775,0,0,0-1.756.173c-.511.081-1.017.19-1.517.32s-.992.294-1.477.474-.956.394-1.419.621-.91.484-1.347.755a19.641,19.641,0,0,0-4.6,4.038,21.265,21.265,0,0,0-3.175,5.211,52.034,52.034,0,0,0-2.024,5.682c-.294.954-.58,1.908-.877,2.855-.149.473-.3.947-.457,1.413s-.324.933-.5,1.4c-.684,1.859-1.448,3.7-2.113,5.6a29.6,29.6,0,0,0-1.524,5.862,18.921,18.921,0,0,0,.138,6.093,33.831,33.831,0,0,0,1.763,5.783l.524,1.4c.174.466.343.93.509,1.4.332.935.651,1.876.968,2.82.636,1.884,1.236,3.79,1.951,5.672.36.94.737,1.875,1.19,2.793a27.211,27.211,0,0,0,1.51,2.645q.412.639.85,1.257t.919,1.218a25.62,25.62,0,0,0,2.048,2.261,23.365,23.365,0,0,0,2.314,2,19.894,19.894,0,0,0,2.592,1.649q.68.361,1.385.669c.412.181.831.34,1.252.493-.431-.139-.859-.287-1.281-.449a22.54,22.54,0,0,1-5.366-2.968,25.443,25.443,0,0,1-4.491-4.226A28.313,28.313,0,0,1,980.7,380.6q-.427-.643-.808-1.312c-.254-.446-.486-.9-.713-1.368a60.515,60.515,0,0,1-2.349-5.817c-.712-1.986-1.412-3.985-2.114-5.977l-.524-1.488-.262-.744c-.088-.248-.176-.5-.256-.745-.328-.995-.626-1.992-.866-3-.118-.5-.224-1.01-.312-1.519s-.156-1.02-.207-1.532-.083-1.027-.093-1.543c-.006-.257-.009-.514,0-.771l.008-.385.021-.385a26.048,26.048,0,0,1,1.174-6.087c.609-2,1.37-3.96,2.1-5.947.366-.992.73-2,1.057-3.006l.987-3.01a53.251,53.251,0,0,1,2.188-5.885,22.052,22.052,0,0,1,3.249-5.233,20.689,20.689,0,0,1,4.606-4.063,16.853,16.853,0,0,1,2.712-1.41,16.177,16.177,0,0,1,2.92-.879A17.393,17.393,0,0,1,996.258,318.16Zm-4.76-.593c.617-.151,1.244-.268,1.874-.358-.133.024-.267.046-.4.073a17.4,17.4,0,0,0-3.135.965,18.1,18.1,0,0,0-2.9,1.527,21.869,21.869,0,0,0-4.844,4.319,23.207,23.207,0,0,0-3.391,5.519,54.342,54.342,0,0,0-2.2,6l-.972,3.019c-.319,1-.672,1.986-1.034,2.978-.726,1.978-1.482,3.964-2.109,6.009a27.086,27.086,0,0,0-1.226,6.33,21.886,21.886,0,0,0,.056,3.247c.051.539.122,1.076.208,1.609s.2,1.062.316,1.588c.243,1.049.544,2.08.872,3.094.08.254.168.5.255.755l.26.752.52,1.5,2.068,5.992a61.559,61.559,0,0,0,2.341,5.956c.228.484.472.975.738,1.449s.545.94.841,1.394a29.55,29.55,0,0,0,1.92,2.607,26.776,26.776,0,0,0,4.676,4.487c.43.325.874.642,1.327.942s.919.583,1.393.851a23.632,23.632,0,0,0,2.948,1.4q.76.3,1.537.547c.52.163,1.037.312,1.561.448.41.106.824.2,1.24.29-1-.189-2-.421-2.974-.69a25.979,25.979,0,0,1-6.035-2.564,28.092,28.092,0,0,1-5.256-3.948c-.394-.379-.776-.775-1.151-1.18s-.738-.817-1.088-1.241a23.371,23.371,0,0,1-1.922-2.663c-.288-.465-.551-.941-.808-1.431s-.5-.984-.734-1.485c-.47-1-.9-2.025-1.306-3.06-.821-2.067-1.533-4.192-2.272-6.3l-.276-.791c-.092-.264-.185-.527-.27-.792l-.518-1.588-.259-.794-.129-.4-.12-.4c-.157-.533-.308-1.066-.446-1.6a27.239,27.239,0,0,1-.936-6.523,24.788,24.788,0,0,1,.848-6.521c.544-2.143,1.3-4.24,2.059-6.341.382-1.051.769-2.1,1.137-3.169l1.082-3.182a60.979,60.979,0,0,1,2.409-6.192,28.59,28.59,0,0,1,1.556-2.888,21.964,21.964,0,0,1,1.915-2.633,22.83,22.83,0,0,1,4.846-4.336c.452-.3.916-.579,1.391-.837s.956-.5,1.451-.715A18.431,18.431,0,0,1,991.5,317.567Zm-1.642-.977a19.685,19.685,0,0,0-1.978.752c-.531.232-1.048.5-1.556.776s-1,.581-1.481.9a24.176,24.176,0,0,0-5.11,4.613,23.239,23.239,0,0,0-2.009,2.811,27.972,27.972,0,0,0-1.594,3.039,58.767,58.767,0,0,0-2.355,6.359l-1.022,3.2c-.346,1.057-.714,2.112-1.08,3.17-.732,2.118-1.453,4.257-2,6.458a31.469,31.469,0,0,0-.643,3.348,23.233,23.233,0,0,0-.207,3.417c.01.569.034,1.139.079,1.707s.109,1.135.191,1.7.182,1.124.295,1.68.244,1.109.384,1.658.293,1.093.451,1.634l.12.405.129.4.26.8.52,1.606c.085.268.178.533.269.8l.275.795,1.1,3.18c.18.531.371,1.059.565,1.586s.393,1.054.6,1.579c.409,1.05.839,2.095,1.315,3.123.238.514.485,1.025.747,1.529s.536,1.007.836,1.5a25.038,25.038,0,0,0,1.989,2.79q.541.662,1.117,1.292c.383.419.775.832,1.185,1.232a29.16,29.16,0,0,0,5.429,4.14,27.1,27.1,0,0,0,6.276,2.72c.848.248,1.7.457,2.563.636-.4-.07-.8-.144-1.2-.226a30.527,30.527,0,0,1-6.578-2.131,31.917,31.917,0,0,1-3.065-1.626,28.714,28.714,0,0,1-2.863-1.956q-.684-.531-1.333-1.105c-.43-.382-.855-.785-1.267-1.192a27.3,27.3,0,0,1-2.31-2.588q-.532-.683-1.011-1.4l-.235-.362-.227-.367c-.148-.249-.3-.5-.44-.753-.576-1.011-1.1-2.057-1.589-3.12s-.941-2.149-1.372-3.245-.846-2.2-1.237-3.312-.767-2.232-1.135-3.355-.71-2.243-1.017-3.379a35.34,35.34,0,0,1-1.218-6.9,24.517,24.517,0,0,1,0-3.491,27.252,27.252,0,0,1,.472-3.464c.227-1.147.517-2.283.844-3.411s.7-2.247,1.076-3.364.783-2.23,1.176-3.35l1.166-3.357a63.532,63.532,0,0,1,2.616-6.529,31.887,31.887,0,0,1,1.676-3.045,24.331,24.331,0,0,1,2.042-2.78,25.045,25.045,0,0,1,5.116-4.612q.713-.482,1.463-.906c.5-.281,1-.55,1.523-.789s1.045-.466,1.582-.662,1.08-.379,1.632-.532Zm-1.776-1.017.341-.1q-.393.132-.781.276c-.575.212-1.138.453-1.693.713s-1.1.546-1.628.85-1.047.631-1.55.977A26.485,26.485,0,0,0,977.4,323.2a25.722,25.722,0,0,0-2.119,2.973,31.378,31.378,0,0,0-1.694,3.208,62.409,62.409,0,0,0-2.524,6.714l-1.091,3.382-1.111,3.379c-.366,1.131-.719,2.269-1.036,3.421s-.609,2.313-.832,3.493a29.911,29.911,0,0,0-.478,3.574c-.024.3-.032.6-.048.9s-.017.6-.013.9c0,.6.017,1.2.057,1.8a36.246,36.246,0,0,0,1.207,7.083c.3,1.154.636,2.3.993,3.437s.722,2.263,1.1,3.389.777,2.251,1.2,3.365.86,2.226,1.339,3.323,1,2.181,1.58,3.238c.143.265.293.527.443.789l.234.392.242.387q.492.769,1.041,1.5a28.759,28.759,0,0,0,2.37,2.753c.423.434.85.854,1.3,1.266s.908.807,1.381,1.187a30.144,30.144,0,0,0,2.965,2.1,33.4,33.4,0,0,0,3.18,1.76,31.815,31.815,0,0,0,6.883,2.336c1.159.257,2.321.45,3.493.607-.715-.074-1.43-.162-2.139-.27a35.911,35.911,0,0,1-7.154-1.8c-.289-.1-.574-.22-.86-.332s-.568-.234-.848-.36c-.562-.247-1.122-.511-1.672-.789a32.719,32.719,0,0,1-3.2-1.838,28.566,28.566,0,0,1-2.951-2.206,31.227,31.227,0,0,1-2.667-2.554,24.285,24.285,0,0,1-2.292-2.876,33.9,33.9,0,0,1-1.881-3.184,58.69,58.69,0,0,1-2.97-6.824c-.432-1.167-.833-2.346-1.215-3.532s-.748-2.377-1.072-3.576a45.68,45.68,0,0,1-1.415-7.292q-.091-.923-.138-1.848c-.026-.617-.043-1.236-.033-1.852s.041-1.231.087-1.845.117-1.228.208-1.839a46.313,46.313,0,0,1,1.737-7.224c.371-1.188.774-2.368,1.182-3.549s.816-2.368,1.232-3.541a65.112,65.112,0,0,1,2.806-6.882,29.557,29.557,0,0,1,3.952-6.165,27.4,27.4,0,0,1,5.393-4.924q.751-.52,1.54-.982c.525-.307,1.057-.6,1.6-.863s1.1-.515,1.666-.737S987.5,315.753,988.08,315.573Zm-2.25-.718c-.6.238-1.185.505-1.762.79s-1.143.6-1.7.924-1.093.676-1.619,1.044a28.777,28.777,0,0,0-5.637,5.2,29.82,29.82,0,0,0-4.056,6.49c-.545,1.149-1.024,2.324-1.469,3.506s-.854,2.372-1.249,3.565-.772,2.385-1.157,3.576-.762,2.391-1.119,3.6-.682,2.424-.975,3.653-.531,2.473-.7,3.729c-.092.627-.155,1.259-.209,1.891s-.081,1.268-.085,1.9.007,1.268.032,1.9.075,1.265.136,1.9a46.546,46.546,0,0,0,1.421,7.437c.326,1.218.694,2.422,1.074,3.618s.786,2.388,1.215,3.571a59.618,59.618,0,0,0,2.982,6.951,34.822,34.822,0,0,0,1.919,3.287,25.749,25.749,0,0,0,2.365,3,32.14,32.14,0,0,0,2.732,2.658,29.554,29.554,0,0,0,3.039,2.31,33.75,33.75,0,0,0,3.29,1.924c.565.291,1.135.566,1.716.827.289.133.584.255.876.38s.59.24.888.351a37.053,37.053,0,0,0,7.365,1.921c1.253.2,2.508.346,3.773.448s2.535.149,3.807.132q1.365-.016,2.731-.149c-.4.049-.807.094-1.213.131a35.373,35.373,0,0,1-3.892.136c-.325,0-.651-.02-.976-.032s-.651-.032-.976-.056-.651-.044-.976-.074-.65-.057-.974-.09a42.029,42.029,0,0,1-7.653-1.463c-.624-.181-1.239-.387-1.85-.6s-1.212-.456-1.814-.708a36.356,36.356,0,0,1-3.509-1.7,31.74,31.74,0,0,1-3.284-2.081,33.428,33.428,0,0,1-3-2.477,28.321,28.321,0,0,1-2.66-2.829q-.612-.753-1.164-1.551c-.366-.532-.721-1.082-1.057-1.638a47.55,47.55,0,0,1-3.443-7.029,73.139,73.139,0,0,1-2.509-7.451q-.528-1.891-.927-3.815c-.268-1.28-.488-2.57-.65-3.865s-.264-2.6-.3-3.9c-.009-.326-.014-.653-.016-.978s.008-.65.013-.975c.024-.649.06-1.3.121-1.947a44.7,44.7,0,0,1,1.473-7.686c.346-1.264.73-2.519,1.134-3.771s.821-2.5,1.254-3.744a63.116,63.116,0,0,1,2.968-7.264,32.13,32.13,0,0,1,4.223-6.51,28.074,28.074,0,0,1,12.36-8.5C986.047,314.769,985.938,314.811,985.83,314.855Zm-1.124-1.3q.278-.1.558-.2-.637.246-1.263.521c-.622.27-1.231.57-1.83.888s-1.185.661-1.758,1.02-1.132.739-1.678,1.137a32.065,32.065,0,0,0-5.857,5.54,33.253,33.253,0,0,0-4.285,6.8,65.132,65.132,0,0,0-2.937,7.418c-.835,2.511-1.668,5.022-2.356,7.591a46.7,46.7,0,0,0-1.489,7.849c-.062.666-.1,1.335-.123,2,0,.335-.016.67-.013,1s.006.667.014,1q.053,2,.3,3.991c.163,1.324.386,2.639.656,3.942s.58,2.6.935,3.879a76.838,76.838,0,0,0,2.52,7.557,48.554,48.554,0,0,0,3.487,7.19c.344.574.7,1.136,1.082,1.693s.782,1.1,1.2,1.622a29.408,29.408,0,0,0,2.737,2.955,34.458,34.458,0,0,0,3.083,2.583,32.855,32.855,0,0,0,3.383,2.179,39.035,39.035,0,0,0,3.6,1.781c.613.264,1.236.518,1.866.75s1.265.449,1.907.642a43.275,43.275,0,0,0,7.862,1.589q1.991.222,3.994.309c.668.029,1.337.058,2.008.064s1.342.01,2.015-.006q.81-.022,1.622-.077l-.114.012a52.44,52.44,0,0,1-8.227.084q-2.058-.133-4.1-.414c-1.359-.194-2.709-.441-4.042-.757-.667-.157-1.328-.334-1.986-.524s-1.309-.4-1.952-.632c-1.292-.46-2.563-.979-3.8-1.564-.619-.294-1.231-.6-1.832-.928s-1.192-.672-1.773-1.033a32.84,32.84,0,0,1-3.333-2.389q-.8-.648-1.552-1.342t-1.456-1.442a27.153,27.153,0,0,1-2.582-3.174,42.868,42.868,0,0,1-4-7.2,61.2,61.2,0,0,1-2.8-7.779c-.384-1.326-.726-2.661-1.013-4.01s-.539-2.706-.729-4.071-.33-2.735-.405-4.11-.087-2.753-.023-4.122a43.2,43.2,0,0,1,1.261-8.143c.652-2.68,1.5-5.311,2.416-7.923a62.779,62.779,0,0,1,3.186-7.608,35.648,35.648,0,0,1,4.467-6.831A31.185,31.185,0,0,1,984.706,313.553Zm29.134,83.572c-.129.042-.261.081-.391.121a31.37,31.37,0,0,0,6.33-2.87,30.173,30.173,0,0,0,3.343-2.336,31.2,31.2,0,0,0,2.99-2.765,32.764,32.764,0,0,0,4.818-6.531c.334-.59.64-1.2.938-1.8s.568-1.232.819-1.862a35.546,35.546,0,0,0,1.293-3.842,36.708,36.708,0,0,0,.857-3.958c.215-1.336.351-2.676.436-4.014.163-2.676.15-5.33.14-7.971,0-1.32-.013-2.636,0-3.947.01-.649.021-1.329.014-2s-.024-1.34-.056-2.01q-.1-2.008-.334-4c-.16-1.328-.363-2.655-.625-3.973s-.582-2.625-.96-3.916q-.282-.969-.611-1.924c-.218-.635-.457-1.275-.716-1.9a39.146,39.146,0,0,0-1.748-3.646q-.478-.886-.984-1.75c-.337-.577-.676-1.146-1.029-1.718a36.708,36.708,0,0,0-4.921-6.424,33.5,33.5,0,0,0-6.366-5.031q-.864-.53-1.752-1.017c-.593-.323-1.191-.629-1.8-.926a36.364,36.364,0,0,0-3.752-1.547,38.357,38.357,0,0,0-3.893-1.13l-.21-.046q1.6.321,3.16.765a37.19,37.19,0,0,1,3.851,1.336q.941.386,1.866.826t1.826.915a34.55,34.55,0,0,1,6.687,4.607,35.386,35.386,0,0,1,5.367,6.1c.781,1.114,1.531,2.274,2.238,3.441s1.36,2.366,1.947,3.591q.44.918.822,1.859c.255.628.495,1.268.72,1.91q.674,1.93,1.169,3.918t.817,4.013c.216,1.352.387,2.71.5,4.074s.182,2.73.192,4.1c0,.342,0,.683,0,1.026l-.009,1.043-.017,2.083c-.063,5.538-.136,11.083-1.617,16.33a37.479,37.479,0,0,1-1.288,3.871c-.247.632-.517,1.255-.8,1.869s-.6,1.219-.919,1.816a33.734,33.734,0,0,1-4.732,6.612,30.8,30.8,0,0,1-6.225,5.213A32.8,32.8,0,0,1,1013.84,397.125Zm-33.526-83.189c-.628.332-1.242.695-1.844,1.071s-1.19.774-1.766,1.19a33.571,33.571,0,0,0-6.193,5.8,35.708,35.708,0,0,0-4.555,7.14c-.624,1.264-1.175,2.56-1.685,3.865s-.975,2.626-1.412,3.953c-.869,2.65-1.666,5.332-2.288,8.062q-.468,2.047-.784,4.129c-.1.694-.187,1.391-.259,2.089s-.117,1.4-.153,2.1c-.063,1.406-.044,2.81.032,4.209s.208,2.8.4,4.183.438,2.766.728,4.134.63,2.729,1.015,4.072a63.166,63.166,0,0,0,2.816,7.9,43.812,43.812,0,0,0,4.045,7.375,30.17,30.17,0,0,0,5.739,6.193,33.849,33.849,0,0,0,3.417,2.491q.894.566,1.819,1.079c.616.342,1.244.663,1.878.97q1.9.918,3.89,1.637c.662.244,1.333.46,2.007.668s1.355.388,2.039.555c1.368.336,2.751.6,4.141.81s2.788.355,4.187.457a54.67,54.67,0,0,0,7.877.023c-.751.092-1.506.168-2.264.225a42.049,42.049,0,0,1-4.329.105,55.578,55.578,0,0,1-8.611-.866,42.331,42.331,0,0,1-4.2-.995c-.347-.1-.688-.21-1.032-.316s-.686-.224-1.026-.346c-.682-.235-1.356-.492-2.025-.761a36.159,36.159,0,0,1-7.562-4.133,31.938,31.938,0,0,1-6.285-5.878c-.45-.56-.876-1.139-1.291-1.731s-.812-1.194-1.193-1.807c-.765-1.225-1.462-2.493-2.1-3.789a53.635,53.635,0,0,1-3.16-8.083c-.42-1.387-.794-2.789-1.11-4.2-.159-.706-.3-1.417-.433-2.13s-.254-1.428-.36-2.145a54.356,54.356,0,0,1-.618-8.66,45.908,45.908,0,0,1,.963-8.613,68.136,68.136,0,0,1,2.3-8.386q.7-2.06,1.528-4.071c.553-1.339,1.154-2.654,1.82-3.934a38.431,38.431,0,0,1,4.77-7.175,33.312,33.312,0,0,1,6.34-5.775c.586-.41,1.184-.805,1.793-1.177s1.227-.725,1.861-1.052c.975-.511,1.977-.97,3-1.385Q981.23,313.447,980.314,313.936Zm43.048,80.187c-.594.385-1.2.749-1.815,1.1-.451.251-.91.488-1.372.719q.917-.488,1.8-1.036a32.252,32.252,0,0,0,6.562-5.4,34.908,34.908,0,0,0,4.99-6.879c.342-.622.672-1.252.974-1.9s.592-1.293.855-1.953a39.519,39.519,0,0,0,2.291-8.174c.232-1.4.394-2.8.5-4.206.22-2.8.277-5.6.311-8.381l.024-2.084.013-1.04c0-.351.007-.7,0-1.057q-.012-2.117-.193-4.227c-.117-1.405-.293-2.805-.514-4.2s-.5-2.78-.842-4.153-.744-2.73-1.209-4.067c-.234-.669-.481-1.33-.748-1.989s-.554-1.311-.861-1.952c-.613-1.282-1.293-2.526-2.02-3.736q-.546-.907-1.125-1.789c-.384-.587-.777-1.174-1.187-1.751a37.066,37.066,0,0,0-5.638-6.372,36.216,36.216,0,0,0-7.018-4.813q-.938-.5-1.9-.948t-1.949-.849a38.9,38.9,0,0,0-4.027-1.372,43.419,43.419,0,0,0-6.161-1.241q.538.057,1.073.126c1.421.179,2.831.43,4.225.745.7.161,1.389.332,2.075.53.345.094.685.2,1.026.3l.509.165q.255.081.507.17c1.345.463,2.678,1.006,3.975,1.6a37.164,37.164,0,0,1,7.3,4.417,36.032,36.032,0,0,1,6.038,6.028c.447.559.874,1.13,1.294,1.714s.829,1.174,1.225,1.773c.789,1.2,1.531,2.426,2.2,3.689a38.613,38.613,0,0,1,1.8,3.886c.534,1.329,1,2.687,1.406,4.061s.747,2.769,1.031,4.176.508,2.831.679,4.257.287,2.861.349,4.3q.043,1.077.043,2.155c0,.357,0,.721-.008,1.085l-.015,1.091c-.047,2.907-.152,5.8-.432,8.676-.139,1.437-.315,2.861-.565,4.272a42.5,42.5,0,0,1-.956,4.178,41.355,41.355,0,0,1-1.375,4.055,35.573,35.573,0,0,1-1.807,3.861,36.4,36.4,0,0,1-4.909,6.944A32.8,32.8,0,0,1,1023.362,394.123Zm-40.918-83.074a34.59,34.59,0,0,0-4.025,1.967,34.171,34.171,0,0,0-3.731,2.467,37.586,37.586,0,0,0-6.406,6.173,39.544,39.544,0,0,0-4.789,7.458,60.413,60.413,0,0,0-3.3,8.183c-.454,1.395-.883,2.8-1.265,4.218s-.719,2.849-1,4.292a47.932,47.932,0,0,0-.96,8.77,56.355,56.355,0,0,0,.623,8.793q.161,1.091.362,2.174c.134.722.276,1.443.436,2.161.318,1.436.7,2.858,1.12,4.265a55.731,55.731,0,0,0,3.188,8.221c.647,1.323,1.354,2.619,2.13,3.874q.58.942,1.212,1.852c.421.6.858,1.2,1.32,1.784a35.411,35.411,0,0,0,14.155,10.413c.681.285,1.368.556,2.063.807.346.129.7.246,1.044.367s.7.234,1.057.339a43.4,43.4,0,0,0,4.3,1.077,57.058,57.058,0,0,0,8.786,1c1.472.063,2.946.106,4.426.111l.45,0c-1.2.1-2.4.169-3.6.184-1.518.016-3.036-.04-4.549-.136s-3.022-.25-4.52-.47c-.75-.1-1.5-.237-2.239-.375s-1.483-.3-2.216-.483c-.368-.086-.732-.187-1.1-.281s-.727-.2-1.09-.313c-.726-.215-1.444-.455-2.16-.7a39.29,39.29,0,0,1-8.154-3.92,32.936,32.936,0,0,1-9.745-9.34,42.969,42.969,0,0,1-2.395-3.86,48.785,48.785,0,0,1-3.584-8.353q-.706-2.165-1.231-4.386c-.351-1.477-.632-2.972-.868-4.475a62.975,62.975,0,0,1-.769-9.084,57.949,57.949,0,0,1,6.389-26.314,42.167,42.167,0,0,1,5.029-7.534,36.928,36.928,0,0,1,6.609-6.148,36.246,36.246,0,0,1,3.809-2.423,38.12,38.12,0,0,1,4.077-1.935c.509-.205,1.022-.4,1.539-.584Zm48.848,78.912a37.973,37.973,0,0,0,5.114-7.369,37.42,37.42,0,0,0,1.862-4.084,43.1,43.1,0,0,0,1.394-4.249,49.267,49.267,0,0,0,1.506-8.777c.261-2.942.359-5.884.4-8.814l.011-1.1c0-.365.006-.732,0-1.1q0-1.112-.048-2.223c-.064-1.481-.181-2.959-.36-4.43s-.411-2.933-.7-4.388-.646-2.9-1.068-4.323-.906-2.831-1.457-4.211c-.275-.689-.564-1.378-.879-2.054s-.645-1.345-.993-2c-.7-1.317-1.463-2.593-2.277-3.833q-.612-.93-1.26-1.832c-.431-.6-.877-1.2-1.34-1.783a37.846,37.846,0,0,0-6.312-6.333,38.924,38.924,0,0,0-7.636-4.649c-1.353-.627-2.725-1.191-4.139-1.682-.176-.063-.353-.122-.53-.18l-.532-.174c-.357-.109-.712-.222-1.072-.321-.716-.208-1.44-.389-2.165-.559q-2.179-.5-4.394-.787c-.737-.1-1.476-.174-2.216-.242-.193-.016-.386-.029-.579-.044.638.034,1.275.074,1.91.132.752.062,1.5.151,2.247.246s1.491.214,2.23.352a43.348,43.348,0,0,1,4.387,1.032c1.437.424,2.862.926,4.256,1.492a39.87,39.87,0,0,1,7.909,4.265,37.5,37.5,0,0,1,6.688,5.982c.5.563.978,1.138,1.441,1.729s.918,1.195,1.358,1.806c.874,1.226,1.7,2.488,2.449,3.79a42.9,42.9,0,0,1,2.052,4.011c.611,1.376,1.164,2.778,1.644,4.206a51.457,51.457,0,0,1,2.118,8.781,56.409,56.409,0,0,1,.657,9.023c-.029,3.039-.171,6.076-.5,9.085-.08.752-.176,1.5-.281,2.252s-.224,1.491-.36,2.233q-.406,2.224-1.021,4.394t-1.44,4.27q-.414,1.05-.876,2.071t-.991,2.014a39.562,39.562,0,0,1-5.061,7.39,33.541,33.541,0,0,1-4.723,4.453A34.2,34.2,0,0,0,1031.292,389.961Zm-36.378,13.25c-1.58-.1-3.155-.251-4.719-.47s-3.118-.5-4.651-.863-3.054-.8-4.55-1.3a41.932,41.932,0,0,1-8.566-3.967,35.7,35.7,0,0,1-7.333-5.941q-.812-.861-1.558-1.783c-.5-.614-.983-1.243-1.448-1.885a42.451,42.451,0,0,1-2.571-4,43.609,43.609,0,0,1-2.113-4.265c-.622-1.463-1.183-2.952-1.661-4.469s-.89-3.054-1.227-4.608q-.251-1.166-.454-2.342t-.363-2.363a70.478,70.478,0,0,1-.633-9.532,58.321,58.321,0,0,1,.775-9.5,55.447,55.447,0,0,1,2.338-9.223,49.332,49.332,0,0,1,3.961-8.621,45.664,45.664,0,0,1,2.6-3.959q.7-.954,1.45-1.873c.5-.612,1.014-1.208,1.545-1.789a40.2,40.2,0,0,1,7.136-6.145,41.741,41.741,0,0,1,8.349-4.345c1.345-.52,2.718-.979,4.1-1.377l-.127.038a43.385,43.385,0,0,0-4.385,1.59,39.48,39.48,0,0,0-4.179,2.078,37.726,37.726,0,0,0-3.893,2.57q-.934.7-1.822,1.454c-.593.5-1.174,1.019-1.734,1.557s-1.109,1.089-1.636,1.659-1.037,1.156-1.531,1.754a43.2,43.2,0,0,0-5.078,7.763,56.182,56.182,0,0,0-3.484,8.571c-.466,1.469-.889,2.953-1.25,4.452s-.667,3.01-.916,4.532a52.219,52.219,0,0,0-.706,9.219,64.7,64.7,0,0,0,.765,9.206c.236,1.522.518,3.039.872,4.541s.766,2.989,1.242,4.457a50.213,50.213,0,0,0,3.621,8.516,43.8,43.8,0,0,0,2.431,3.951,35.364,35.364,0,0,0,2.871,3.657,35.763,35.763,0,0,0,7.087,6,40.937,40.937,0,0,0,8.334,4.089c.728.261,1.46.514,2.2.742.368.118.742.224,1.114.333s.747.209,1.123.3c.75.2,1.507.361,2.265.519s1.521.293,2.286.408a66.493,66.493,0,0,0,9.236.734c.792.015,1.587.027,2.382.029q-1.375.05-2.753.052Q997.286,403.359,994.914,403.211Zm50.722-38.216q-.177,1.18-.392,2.354t-.483,2.332c-.175.774-.374,1.542-.584,2.307s-.439,1.524-.686,2.278c-.491,1.508-1.056,2.99-1.685,4.444a42.979,42.979,0,0,1-4.694,8.212c-.462.639-.948,1.264-1.445,1.873s-1.014,1.2-1.553,1.772a36.639,36.639,0,0,1-7.275,5.957,38.311,38.311,0,0,1-3.951,2.153,35.9,35.9,0,0,0,10.921-8.516,40.834,40.834,0,0,0,5.256-7.761q.539-1.042,1.022-2.113c.32-.714.619-1.438.9-2.164q.842-2.183,1.465-4.44c.415-1.5.757-3.024,1.032-4.555.137-.765.259-1.534.362-2.3s.2-1.536.279-2.306c.323-3.08.454-6.168.471-9.252a59.214,59.214,0,0,0-.685-9.279,53.069,53.069,0,0,0-2.187-9.053c-.5-1.474-1.068-2.924-1.7-4.345a44.612,44.612,0,0,0-2.131-4.161c-.779-1.35-1.632-2.654-2.535-3.921q-.682-.948-1.4-1.864c-.481-.614-.983-1.212-1.5-1.8a39.1,39.1,0,0,0-6.973-6.233,41.47,41.47,0,0,0-8.227-4.434c-1.444-.585-2.91-1.1-4.409-1.544a44.951,44.951,0,0,0-4.55-1.069c-.765-.143-1.536-.256-2.306-.363s-1.544-.189-2.318-.253c-1.549-.138-3.1-.2-4.649-.215-.273,0-.546,0-.818,0,.51-.011,1.021-.019,1.531-.018q2.372,0,4.734.181c1.573.124,3.139.31,4.691.572a45.113,45.113,0,0,1,4.6,1.021q.284.076.568.162l.567.168c.376.119.753.233,1.127.359.749.244,1.491.51,2.227.793a42.367,42.367,0,0,1,8.383,4.32,39.606,39.606,0,0,1,7.179,6.135,45.994,45.994,0,0,1,5.619,7.646,48.256,48.256,0,0,1,3.958,8.648,53.78,53.78,0,0,1,2.278,9.249,57.781,57.781,0,0,1,.7,9.506A69.413,69.413,0,0,1,1045.636,364.995Z" transform="translate(-749.12 32.731)" fill="#fff"/>
  </g>
</svg>
