<svg xmlns="http://www.w3.org/2000/svg" width="19.451" height="19" viewBox="0 0 19.451 19">
  <path id="chat-bubble-solid" d="M11.741,2.5C6.371,2.5,2,6.349,2,11.081s4.371,8.581,9.741,8.581a10.889,10.889,0,0,0,2.971-.417L18.078,21.4a.605.605,0,0,0,.62.022.614.614,0,0,0,.317-.537V16.763a7.994,7.994,0,0,0,2.435-5.682C21.481,6.349,17.11,2.5,11.741,2.5Zm4.87,8.581a.611.611,0,0,1-.609.613H7.479a.613.613,0,0,1,0-1.226H16A.611.611,0,0,1,16.611,11.081Zm-1.979,3.065a.611.611,0,0,1-.609.613H9.458a.613.613,0,0,1,0-1.226h4.566A.611.611,0,0,1,14.632,14.146ZM7.041,8.016A.611.611,0,0,1,7.65,7.4h8.182a.613.613,0,0,1,0,1.226H7.65A.611.611,0,0,1,7.041,8.016Z" transform="translate(-2 -2.5)" fill="#d3dee5"/>
</svg>
