<svg xmlns="http://www.w3.org/2000/svg" width="18" height="20.25" viewBox="0 0 18 20.25">
  <path id="Path_31616" data-name="Path 31616" d="M-669.205-78.282l-6-5.4a2.974,2.974,0,0,0-2-.769,2.974,2.974,0,0,0-2,.769l-6,5.4a3.064,3.064,0,0,0-1.008,2.275v8.762a3.024,3.024,0,0,0,3,3.044H-671.2a3.024,3.024,0,0,0,3-3.044v-8.762A3.064,3.064,0,0,0-669.205-78.282ZM-678.7-65.7v-4.642a.5.5,0,0,1,.5-.5h2a.5.5,0,0,1,.5.5V-65.7Zm9-1.544a1.527,1.527,0,0,1-1.5,1.544h-3v-4.642a2,2,0,0,0-2-2h-2a2,2,0,0,0-2,2V-65.7h-3a1.527,1.527,0,0,1-1.5-1.544v-8.762a1.563,1.563,0,0,1,.512-1.16l6-5.4a1.483,1.483,0,0,1,.992-.383,1.483,1.483,0,0,1,.992.383l6,5.4a1.563,1.563,0,0,1,.512,1.16Z" transform="translate(686.197 84.451)" fill="#fff"/>
</svg>
