<svg xmlns="http://www.w3.org/2000/svg" width="34.374" height="34.75" viewBox="0 0 34.374 34.75">
  <g id="Group_1728" data-name="Group 1728" transform="translate(9229.734 -828.892)">
    <rect id="Mask" width="34" height="34" transform="translate(-9229.36 828.892)" fill="rgba(255,255,255,0)"/>
    <g id="Group_32814" data-name="Group 32814" transform="translate(-7710.241 841.19)">
      <path id="Path_31782" data-name="Path 31782" d="M-1501.172,15.3h-2.893a1.1,1.1,0,0,1-1.1-1.1V8.465a.346.346,0,0,0-.346-.345h-5.734a1.1,1.1,0,0,1-1.1-1.1V4.13a1.1,1.1,0,0,1,1.1-1.1h5.734a.346.346,0,0,0,.346-.346V-3.046a1.1,1.1,0,0,1,1.1-1.095h2.893a1.1,1.1,0,0,1,1.1,1.095V2.689a.346.346,0,0,0,.345.346h5.736a1.1,1.1,0,0,1,1.095,1.1V7.024a1.1,1.1,0,0,1-1.095,1.1h-5.736a.346.346,0,0,0-.345.345V14.2A1.1,1.1,0,0,1-1501.172,15.3Zm-10.069-11.511a.346.346,0,0,0-.346.345V7.024a.347.347,0,0,0,.346.346h5.734a1.1,1.1,0,0,1,1.1,1.1V14.2a.346.346,0,0,0,.346.346h2.893a.346.346,0,0,0,.346-.346V8.465a1.1,1.1,0,0,1,1.1-1.1h5.736a.347.347,0,0,0,.345-.346V4.13a.346.346,0,0,0-.345-.345h-5.736a1.1,1.1,0,0,1-1.1-1.1V-3.046a.346.346,0,0,0-.346-.345h-2.893a.346.346,0,0,0-.346.345V2.689a1.1,1.1,0,0,1-1.1,1.1Z" fill="#fff"/>
      <path id="Path_31783" data-name="Path 31783" d="M-1502.617,20.031a8.833,8.833,0,0,1-7.394-3.961,9.316,9.316,0,0,0-3.088-3.092,8.834,8.834,0,0,1-3.973-7.4,8.829,8.829,0,0,1,3.96-7.393,9.326,9.326,0,0,0,3.094-3.089,8.831,8.831,0,0,1,7.4-3.972,8.829,8.829,0,0,1,7.393,3.96l.007.012a9.311,9.311,0,0,0,3.082,3.081,8.833,8.833,0,0,1,3.972,7.4,8.83,8.83,0,0,1-3.96,7.4,9.331,9.331,0,0,0-3.094,3.088,8.832,8.832,0,0,1-7.4,3.973Zm0-28.157a8.082,8.082,0,0,0-6.766,3.623,10.059,10.059,0,0,1-3.326,3.322,8.074,8.074,0,0,0-3.611,6.759,8.082,8.082,0,0,0,3.623,6.766,10.048,10.048,0,0,1,3.322,3.325,8.076,8.076,0,0,0,6.759,3.612h0a8.08,8.08,0,0,0,6.764-3.624,10.058,10.058,0,0,1,3.326-3.321,8.074,8.074,0,0,0,3.611-6.76,8.079,8.079,0,0,0-3.623-6.765,10.048,10.048,0,0,1-3.318-3.32A8.082,8.082,0,0,0-1502.619-8.126Z" fill="#fff"/>
      <path id="Path_31784" data-name="Path 31784" d="M-1502.618,18.78a5.769,5.769,0,0,1-5.128-3.04l-1.064-1.946a5.091,5.091,0,0,0-2.025-2.025l-1.946-1.064a5.769,5.769,0,0,1-3.04-5.128,5.769,5.769,0,0,1,3.04-5.128l1.945-1.064a5.081,5.081,0,0,0,2.026-2.025l1.064-1.945a5.767,5.767,0,0,1,5.128-3.04,5.769,5.769,0,0,1,5.128,3.04l1.063,1.945A5.085,5.085,0,0,0-1494.4-.615l1.946,1.064a5.768,5.768,0,0,1,3.04,5.128,5.768,5.768,0,0,1-3.04,5.128l-1.945,1.064a5.087,5.087,0,0,0-2.026,2.025l-1.063,1.946A5.771,5.771,0,0,1-1502.618,18.78Zm0-25.655a5.025,5.025,0,0,0-4.47,2.65l-1.064,1.945a5.831,5.831,0,0,1-2.324,2.323l-1.945,1.064a5.029,5.029,0,0,0-2.65,4.47,5.028,5.028,0,0,0,2.65,4.47l1.946,1.064a5.837,5.837,0,0,1,2.323,2.324l1.064,1.944a5.026,5.026,0,0,0,4.47,2.651,5.026,5.026,0,0,0,4.469-2.651l1.064-1.945a5.836,5.836,0,0,1,2.324-2.323l1.945-1.064a5.028,5.028,0,0,0,2.65-4.47,5.029,5.029,0,0,0-2.65-4.47l-1.945-1.064a5.83,5.83,0,0,1-2.324-2.323l-1.064-1.945A5.025,5.025,0,0,0-1502.618-6.875Z" fill="#fff"/>
      <path id="Path_31785" data-name="Path 31785" d="M-1503.409,17.076a2.6,2.6,0,0,1-2.665-1.281,12.76,12.76,0,0,1-.635-2.323,5.318,5.318,0,0,0-3.791-3.8,12.735,12.735,0,0,1-2.324-.631c-1.382-.624-1.321-2.2-1.276-3.352l.005-.124-.005-.1c-.044-1.148-.1-2.722,1.263-3.339a12.492,12.492,0,0,1,2.325-.634,5.321,5.321,0,0,0,3.8-3.792,12.723,12.723,0,0,1,.631-2.323c.622-1.381,2.193-1.322,3.345-1.276l.13,0c.166.007.338.009.514.011,1.058.013,2.375.028,2.928,1.246a12.466,12.466,0,0,1,.634,2.325,5.321,5.321,0,0,0,3.792,3.8,12.721,12.721,0,0,1,2.323.631l.014.006c1.368.618,1.308,2.193,1.264,3.344l-.005.126.005.111c.043,1.146.1,2.715-1.264,3.332a12.677,12.677,0,0,1-2.324.633,5.317,5.317,0,0,0-3.8,3.792,12.769,12.769,0,0,1-.631,2.323c-.62,1.381-2.2,1.32-3.345,1.277l-.13,0-.1,0C-1502.948,17.067-1503.176,17.076-1503.409,17.076Zm.028-22.245c-.959,0-1.7.139-2.01.836a12.048,12.048,0,0,0-.581,2.157,6,6,0,0,1-4.412,4.4,11.846,11.846,0,0,0-2.157.584c-.828.374-.858,1.365-.81,2.622l.005.131-.005.153c-.049,1.26-.019,2.253.823,2.634a12.145,12.145,0,0,0,2.156.581,6,6,0,0,1,4.4,4.412,11.972,11.972,0,0,0,.585,2.157c.374.827,1.363.857,2.622.81l.131,0,.159,0c1.259.046,2.251.018,2.627-.822a12.179,12.179,0,0,0,.581-2.157,6,6,0,0,1,4.412-4.4,12.072,12.072,0,0,0,2.157-.585c.827-.373.857-1.362.81-2.615l-.005-.139.005-.154c.048-1.255.019-2.247-.816-2.628a12,12,0,0,0-2.163-.585,6,6,0,0,1-4.4-4.411,11.867,11.867,0,0,0-.584-2.157c-.325-.715-1.138-.78-2.249-.793-.185,0-.366,0-.536-.012l-.127-.005C-1502.978-5.163-1503.184-5.169-1503.381-5.169Z" fill="#fff"/>
      <path id="Path_31786" data-name="Path 31786" d="M-1502.618,22.452a16.894,16.894,0,0,1-16.875-16.875A16.894,16.894,0,0,1-1502.618-11.3a16.9,16.9,0,0,1,16.875,16.875A16.9,16.9,0,0,1-1502.618,22.452Zm0-33a16.143,16.143,0,0,0-16.125,16.125A16.142,16.142,0,0,0-1502.618,21.7a16.143,16.143,0,0,0,16.125-16.125A16.144,16.144,0,0,0-1502.618-10.548Z" fill="#fff"/>
      <path id="Path_31787" data-name="Path 31787" d="M-1502.618,21.211a12.223,12.223,0,0,1-8.672-3.586l-3.376-3.376a12.276,12.276,0,0,1,0-17.343l3.376-3.376a12.276,12.276,0,0,1,17.343,0l3.376,3.376a12.276,12.276,0,0,1,0,17.343l-3.376,3.376A12.222,12.222,0,0,1-1502.618,21.211Zm0-30.518a11.477,11.477,0,0,0-8.142,3.367l-3.376,3.376a11.527,11.527,0,0,0,0,16.283l3.376,3.376a11.529,11.529,0,0,0,16.283,0l3.376-3.376a11.527,11.527,0,0,0,0-16.283l-3.376-3.376A11.475,11.475,0,0,0-1502.618-9.307Z" fill="#fff"/>
    </g>
  </g>
</svg>
