<svg xmlns="http://www.w3.org/2000/svg" width="20" height="20" viewBox="0 0 20 20">
  <g id="Group_32788" data-name="Group 32788" transform="translate(691.604 84.326)">
    <path id="Path_31612" data-name="Path 31612" d="M-681.6-84.326a10,10,0,0,0-10,10,10,10,0,0,0,10,10,10,10,0,0,0,10-10A10,10,0,0,0-681.6-84.326Zm0,18.5a8.51,8.51,0,0,1-8.5-8.5,8.51,8.51,0,0,1,8.5-8.5,8.51,8.51,0,0,1,8.5,8.5A8.51,8.51,0,0,1-681.6-65.826Z" fill="#fff"/>
    <path id="Path_31613" data-name="Path 31613" d="M-677.57-79.344l-5.7,2.756a1.2,1.2,0,0,0-.593.593l-2.757,5.7a.743.743,0,0,0,.985.985l5.7-2.757a1.2,1.2,0,0,0,.592-.593l2.757-5.7A.742.742,0,0,0-677.57-79.344Zm-3.095,5.957a1.327,1.327,0,0,1-1.878,0,1.327,1.327,0,0,1,0-1.878,1.327,1.327,0,0,1,1.878,0A1.327,1.327,0,0,1-680.665-73.387Z" fill="#fff"/>
  </g>
</svg>
