<svg xmlns="http://www.w3.org/2000/svg" width="17.792" height="17.445" viewBox="0 0 17.792 17.445">
  <g id="Group_32786" data-name="Group 32786" transform="translate(770.487 192.379)">
    <path id="Path_31467" data-name="Path 31467" d="M-757.842-182.064h-7.5a5.147,5.147,0,0,0-5.147,5.147v1.572a.411.411,0,0,0,.411.411h.677a.411.411,0,0,0,.412-.411v-1.572a3.647,3.647,0,0,1,3.647-3.647h7.5a3.647,3.647,0,0,1,3.647,3.647v1.572a.411.411,0,0,0,.411.411h.678a.411.411,0,0,0,.411-.411v-1.571A5.148,5.148,0,0,0-757.842-182.064Z" fill="#fff"/>
    <path id="Path_31468" data-name="Path 31468" d="M-761.591-183.379a4.5,4.5,0,0,0,4.5-4.5,4.5,4.5,0,0,0-4.5-4.5,4.5,4.5,0,0,0-4.5,4.5A4.5,4.5,0,0,0-761.591-183.379Zm0-7.5a3,3,0,0,1,3,3,3,3,0,0,1-3,3,3,3,0,0,1-3-3A3,3,0,0,1-761.591-190.879Z" fill="#fff"/>
  </g>
</svg>
