<svg xmlns="http://www.w3.org/2000/svg" width="28.009" height="18.525" viewBox="0 0 28.009 18.525">
  <g id="Group_32787" data-name="Group 32787" transform="translate(736.817 193.45)">
    <path id="Path_31469" data-name="Path 31469" d="M-719-183.137h-7.621c-2.419,0-4.387,2.424-4.387,5.4v2.413a.4.4,0,0,0,.4.4h.707a.4.4,0,0,0,.4-.4v-2.413c0-2.152,1.295-3.9,2.887-3.9H-719c1.592,0,2.887,1.751,2.887,3.9v2.413a.4.4,0,0,0,.4.4h.708a.4.4,0,0,0,.4-.4v-2.413C-714.615-180.713-716.583-183.137-719-183.137Z" fill="#fff"/>
    <path id="Path_31470" data-name="Path 31470" d="M-730.252-182.5l.112-.1a.072.072,0,0,0-.046-.127h-.393l0,0H-733.2a3.746,3.746,0,0,0-3.622,3.85v1.473a.4.4,0,0,0,.4.4h.7a.4.4,0,0,0,.4-.4v-1.473a2.247,2.247,0,0,1,2.122-2.35h1.852a.192.192,0,0,0,.166-.1A4.525,4.525,0,0,1-730.252-182.5Z" fill="#fff"/>
    <path id="Path_31471" data-name="Path 31471" d="M-712.431-182.722h-2.612l0,0h-.393a.072.072,0,0,0-.047.127l.112.1a4.508,4.508,0,0,1,.926,1.184.192.192,0,0,0,.166.1h1.851a2.247,2.247,0,0,1,2.123,2.35v1.473a.4.4,0,0,0,.4.4h.7a.4.4,0,0,0,.4-.4v-1.473A3.746,3.746,0,0,0-712.431-182.722Z" fill="#fff"/>
    <path id="Path_31472" data-name="Path 31472" d="M-714.478-183.792a3,3,0,0,0,3-3,3,3,0,0,0-3-3,3,3,0,0,0-3,3A3,3,0,0,0-714.478-183.792Zm0-4.5a1.5,1.5,0,0,1,1.5,1.5,1.5,1.5,0,0,1-1.5,1.5,1.5,1.5,0,0,1-1.5-1.5A1.5,1.5,0,0,1-714.478-188.292Z" fill="#fff"/>
    <path id="Path_31473" data-name="Path 31473" d="M-731.147-183.792a3,3,0,0,0,3-3,3,3,0,0,0-3-3,3,3,0,0,0-3,3A3,3,0,0,0-731.147-183.792Zm0-4.5a1.5,1.5,0,0,1,1.5,1.5,1.5,1.5,0,0,1-1.5,1.5,1.5,1.5,0,0,1-1.5-1.5A1.5,1.5,0,0,1-731.147-188.292Z" fill="#fff"/>
    <path id="Path_31474" data-name="Path 31474" d="M-722.813-184.45a4.5,4.5,0,0,0,4.5-4.5,4.5,4.5,0,0,0-4.5-4.5,4.5,4.5,0,0,0-4.5,4.5A4.5,4.5,0,0,0-722.813-184.45Zm0-7.5a3,3,0,0,1,3,3,3,3,0,0,1-3,3,3,3,0,0,1-3-3A3,3,0,0,1-722.813-191.95Z" fill="#fff"/>
  </g>
</svg>
